<svg width="4972" height="2232" xmlns="http://www.w3.org/2000/svg" xmlns:xlink="http://www.w3.org/1999/xlink" xml:space="preserve" overflow="hidden"><g transform="translate(461 -87)"><rect x="-457.5" y="90.4999" width="4965" height="2225" stroke="#042433" stroke-width="6.875" stroke-miterlimit="8" fill="#333333"/><g><g><g><path d="M178.567 932.908 178.567 1143.91 637.508 1143.91 655.039 1112.6 703.876 1130.13 731.425 1138.27 763.357 1142.03 763.357 1175.84 790.906 1175.84 790.906 1160.19 809.063 1160.19 818.455 1128.88 906.111 1130.13 907.363 1128.88C919.885 1121.99 910.493 1088.81 896.093 1057.5 882.318 1026.2 874.179 971.101 879.188 947.309 884.197 923.517 851.639 909.742 845.378 885.95 838.49 862.157 849.134 874.054 812.82 842.748 776.505 811.442 740.191 787.024 735.182 750.709 730.173 714.395 689.476 730.674 683.214 703.125 677.579 675.576 616.846 609.208 621.229 593.555 625.612 577.902 622.481 572.893 593.054 567.258 563.627 561.623 556.74 551.605 555.487 535.327 554.235 519.048 525.434 519.048 512.286 514.039 499.763 509.03 467.832 501.516 482.232 478.976 496.007 457.062 471.588 469.585 465.327 440.784 458.44 411.982 479.102 425.757 465.327 401.338 451.553 376.92 464.701 373.163 436.526 357.51 408.351 341.858 424.63 289.264 427.76 264.22 430.891 239.175 391.446 237.297 378.924 218.513 366.401 199.104 357.636 225.401 337.6 223.522 317.564 222.27 313.808 165.294 316.312 139.623 318.817 114.579 292.52 114.579 299.407 96.4214 306.294 78.8902 290.016 66.9941 279.998 50.089 270.606 33.184 274.363 21.914 268.102 5.0089 262.467-11.8961 238.048 25.6706 231.161 50.7151 224.9 75.7597 226.778 73.8813 216.76 85.7775 207.369 97.6736 233.039 110.196 230.535 112.7 228.03 115.205 221.143 112.074 211.751 123.97 202.986 135.867 213.63 148.389 201.734 162.163 189.837 175.938 211.125 189.086 210.499 211.626 209.873 234.792 218.013 249.819 201.107 271.107 184.202 291.769 206.116 336.849 193.594 343.736 181.072 350.623 174.811 377.546 158.532 399.46 142.253 420.748 80.2677 418.243 62.7365 390.068 45.8315 361.893 17.0303 366.276 0.751336 360.641L0.751336 933.534 177.941 933.534 178.567 932.908Z" stroke="#FFFFFF" stroke-width="1.56516" stroke-miterlimit="10" fill="#FCFEFF" fill-opacity="0.4356" transform="matrix(1 0 0 1.00006 3140 649.139)"/></g></g></g></g></svg>