<svg width="2391" height="2056" xmlns="http://www.w3.org/2000/svg" xmlns:xlink="http://www.w3.org/1999/xlink" xml:space="preserve" overflow="hidden"><g transform="translate(-1049 -122)"><path d="M1649.5 1049.5 2797.05 1299.5" stroke="#005EB8" stroke-width="6.875" stroke-miterlimit="8" fill="none" fill-rule="evenodd"/><path d="M1932.5 687.5 2576.7 1597.5" stroke="#005EB8" stroke-width="6.875" stroke-miterlimit="8" fill="none" fill-rule="evenodd"/><path d="M0 0 224.211 1024.85" stroke="#005EB8" stroke-width="6.875" stroke-miterlimit="8" fill="none" fill-rule="evenodd" transform="matrix(-1 0 0 1 2360.71 617.5)"/><path d="M0 0 986.979 515.797" stroke="#005EB8" stroke-width="6.875" stroke-miterlimit="8" fill="none" fill-rule="evenodd" transform="matrix(-1 0 0 1 2761.48 890.5)"/><path d="M1449.5 1112C1449.5 709.661 1790.66 383.5 2211.5 383.5 2632.34 383.5 2973.5 709.661 2973.5 1112 2973.5 1514.34 2632.34 1840.5 2211.5 1840.5 1790.66 1840.5 1449.5 1514.34 1449.5 1112Z" stroke="#005EB8" stroke-width="6.875" stroke-miterlimit="8" stroke-dasharray="6.875 6.875" fill="none" fill-rule="evenodd"/><path d="M2469.5 1820C2469.5 1672.82 2588.59 1553.5 2735.5 1553.5 2882.41 1553.5 3001.5 1672.82 3001.5 1820 3001.5 1967.18 2882.41 2086.5 2735.5 2086.5 2588.59 2086.5 2469.5 1967.18 2469.5 1820Z" stroke="#00376E" stroke-width="6.875" stroke-miterlimit="8" fill="#F2F2F2" fill-rule="evenodd"/><path d="M1549.5 492.5C1549.5 348.906 1668.59 232.5 1815.5 232.5 1962.41 232.5 2081.5 348.906 2081.5 492.5 2081.5 636.094 1962.41 752.5 1815.5 752.5 1668.59 752.5 1549.5 636.094 1549.5 492.5Z" stroke="#00376E" stroke-width="6.875" stroke-miterlimit="8" fill="#F2F2F2" fill-rule="evenodd"/><path d="M1846.5 1908.5C1846.5 1761.59 1965.82 1642.5 2113 1642.5 2260.18 1642.5 2379.5 1761.59 2379.5 1908.5 2379.5 2055.41 2260.18 2174.5 2113 2174.5 1965.82 2174.5 1846.5 2055.41 1846.5 1908.5Z" stroke="#00376E" stroke-width="6.875" stroke-miterlimit="8" fill="#F2F2F2" fill-rule="evenodd"/><path d="M2796.5 1300C2796.5 1152.82 2918.73 1033.5 3069.5 1033.5 3220.27 1033.5 3342.5 1152.82 3342.5 1300 3342.5 1447.18 3220.27 1566.5 3069.5 1566.5 2918.73 1566.5 2796.5 1447.18 2796.5 1300Z" stroke="#00376E" stroke-width="6.875" stroke-miterlimit="8" fill="#F2F2F2" fill-rule="evenodd"/><path d="M2683.5 702.5C2683.5 555.592 2802.59 436.5 2949.5 436.5 3096.41 436.5 3215.5 555.592 3215.5 702.5 3215.5 849.408 3096.41 968.5 2949.5 968.5 2802.59 968.5 2683.5 849.408 2683.5 702.5Z" stroke="#00376E" stroke-width="6.875" stroke-miterlimit="8" fill="#F2F2F2" fill-rule="evenodd"/><path d="M2155.5 392C2155.5 244.816 2277.73 125.5 2428.5 125.5 2579.27 125.5 2701.5 244.816 2701.5 392 2701.5 539.184 2579.27 658.5 2428.5 658.5 2277.73 658.5 2155.5 539.184 2155.5 392Z" stroke="#00376E" stroke-width="6.875" stroke-miterlimit="8" fill="#F2F2F2" fill-rule="evenodd"/><path d="M1319.5 1595C1319.5 1447.82 1438.82 1328.5 1586 1328.5 1733.18 1328.5 1852.5 1447.82 1852.5 1595 1852.5 1742.18 1733.18 1861.5 1586 1861.5 1438.82 1861.5 1319.5 1742.18 1319.5 1595Z" stroke="#00376E" stroke-width="6.875" stroke-miterlimit="8" fill="#F2F2F2" fill-rule="evenodd"/><path d="M1182.5 1001.5C1182.5 854.592 1301.82 735.5 1449 735.5 1596.18 735.5 1715.5 854.592 1715.5 1001.5 1715.5 1148.41 1596.18 1267.5 1449 1267.5 1301.82 1267.5 1182.5 1148.41 1182.5 1001.5Z" stroke="#00376E" stroke-width="6.875" stroke-miterlimit="8" fill="#F2F2F2" fill-rule="evenodd"/><text font-family="Noto Sans Light,Noto Sans Light_MSFontService,sans-serif" font-weight="300" font-size="55" transform="matrix(1 0 0 1 1683.14 372)">Data </text><text font-family="Noto Sans Light,Noto Sans Light_MSFontService,sans-serif" font-weight="300" font-size="55" transform="matrix(1 0 0 1 1683.14 438)">analysts </text><path d="M1890.5 1126.5C1890.5 942.037 2045.41 792.5 2236.5 792.5 2427.59 792.5 2582.5 942.037 2582.5 1126.5 2582.5 1310.96 2427.59 1460.5 2236.5 1460.5 2045.41 1460.5 1890.5 1310.96 1890.5 1126.5Z" stroke="#FFFFFF" stroke-width="6.875" stroke-miterlimit="8" fill="#00376E" fill-rule="evenodd"/><text fill="#FFFFFF" font-family="Open Sans,Open Sans_MSFontService,sans-serif" font-weight="400" font-size="50" transform="matrix(1 0 0 1 2032.31 1113)">Program, project, </text><text fill="#FFFFFF" font-family="Open Sans,Open Sans_MSFontService,sans-serif" font-weight="400" font-size="50" transform="matrix(1 0 0 1 2104.77 1174)">or initiative</text><text font-family="Noto Sans Light,Noto Sans Light_MSFontService,sans-serif" font-weight="300" font-size="55" transform="matrix(1 0 0 1 1263.04 1010)">Senior </text><text font-family="Noto Sans Light,Noto Sans Light_MSFontService,sans-serif" font-weight="300" font-size="55" transform="matrix(1 0 0 1 1251.3 1076)">leaders</text><text font-family="Noto Sans Light,Noto Sans Light_MSFontService,sans-serif" font-weight="300" font-size="55" transform="matrix(1 0 0 1 2317.51 302)">Program </text><text font-family="Noto Sans Light,Noto Sans Light_MSFontService,sans-serif" font-weight="300" font-size="55" transform="matrix(1 0 0 1 2302.04 368)">managers</text><text font-family="Noto Sans Light,Noto Sans Light_MSFontService,sans-serif" font-weight="300" font-size="55" transform="matrix(1 0 0 1 2958.86 599)">Policy</text><text font-family="Noto Sans Light,Noto Sans Light_MSFontService,sans-serif" font-weight="300" font-size="55" transform="matrix(1 0 0 1 2917.61 665)">officers</text><text font-family="Noto Sans Light,Noto Sans Light_MSFontService,sans-serif" font-weight="300" font-size="55" transform="matrix(1 0 0 1 3062.93 1289)">Project </text><text font-family="Noto Sans Light,Noto Sans Light_MSFontService,sans-serif" font-weight="300" font-size="55" transform="matrix(1 0 0 1 3058.62 1355)">officers</text><text font-family="Noto Sans Light,Noto Sans Light_MSFontService,sans-serif" font-weight="300" font-size="55" transform="matrix(1 0 0 1 1402.57 1672)">Administration </text><text font-family="Noto Sans Light,Noto Sans Light_MSFontService,sans-serif" font-weight="300" font-size="55" transform="matrix(1 0 0 1 1493.67 1738)">officers</text><text font-family="Noto Sans Light,Noto Sans Light_MSFontService,sans-serif" font-weight="300" font-size="55" transform="matrix(1 0 0 1 1946.12 1979)">Engagement </text><text font-family="Noto Sans Light,Noto Sans Light_MSFontService,sans-serif" font-weight="300" font-size="55" transform="matrix(1 0 0 1 2014.3 2045)">officers</text><text font-family="Noto Sans Light,Noto Sans Light_MSFontService,sans-serif" font-weight="300" font-size="55" transform="matrix(1 0 0 1 2528.27 1886)">Communications </text><text font-family="Noto Sans Light,Noto Sans Light_MSFontService,sans-serif" font-weight="300" font-size="55" transform="matrix(1 0 0 1 2662.33 1952)">teams </text><path d="M1493.5 1024.5C1493.5 981.422 1528.42 946.5 1571.5 946.5 1614.58 946.5 1649.5 981.422 1649.5 1024.5 1649.5 1067.58 1614.58 1102.5 1571.5 1102.5 1528.42 1102.5 1493.5 1067.58 1493.5 1024.5Z" stroke="#005EB8" stroke-width="6.875" stroke-miterlimit="8" fill="#F2F2F2" fill-rule="evenodd"/><path d="M1783.5 596.5C1783.5 553.422 1818.2 518.5 1861 518.5 1903.8 518.5 1938.5 553.422 1938.5 596.5 1938.5 639.578 1903.8 674.5 1861 674.5 1818.2 674.5 1783.5 639.578 1783.5 596.5Z" stroke="#005EB8" stroke-width="6.875" stroke-miterlimit="8" fill="#F2F2F2" fill-rule="evenodd"/><path d="M2306.5 516.5C2306.5 473.422 2341.2 438.5 2384 438.5 2426.8 438.5 2461.5 473.422 2461.5 516.5 2461.5 559.578 2426.8 594.5 2384 594.5 2341.2 594.5 2306.5 559.578 2306.5 516.5Z" stroke="#005EB8" stroke-width="6.875" stroke-miterlimit="8" fill="#F2F2F2" fill-rule="evenodd"/><path d="M2779.5 812.5C2779.5 769.422 2814.42 734.5 2857.5 734.5 2900.58 734.5 2935.5 769.422 2935.5 812.5 2935.5 855.578 2900.58 890.5 2857.5 890.5 2814.42 890.5 2779.5 855.578 2779.5 812.5Z" stroke="#005EB8" stroke-width="6.875" stroke-miterlimit="8" fill="#F2F2F2" fill-rule="evenodd"/><path d="M2829.5 1303.5C2829.5 1260.42 2864.42 1225.5 2907.5 1225.5 2950.58 1225.5 2985.5 1260.42 2985.5 1303.5 2985.5 1346.58 2950.58 1381.5 2907.5 1381.5 2864.42 1381.5 2829.5 1346.58 2829.5 1303.5Z" stroke="#005EB8" stroke-width="6.875" stroke-miterlimit="8" fill="#F2F2F2" fill-rule="evenodd"/><path d="M2582.5 1701.5C2582.5 1658.42 2617.42 1623.5 2660.5 1623.5 2703.58 1623.5 2738.5 1658.42 2738.5 1701.5 2738.5 1744.58 2703.58 1779.5 2660.5 1779.5 2617.42 1779.5 2582.5 1744.58 2582.5 1701.5Z" stroke="#005EB8" stroke-width="6.875" stroke-miterlimit="8" fill="#F2F2F2" fill-rule="evenodd"/><path d="M2020.5 1780.5C2020.5 1737.42 2055.42 1702.5 2098.5 1702.5 2141.58 1702.5 2176.5 1737.42 2176.5 1780.5 2176.5 1823.58 2141.58 1858.5 2098.5 1858.5 2055.42 1858.5 2020.5 1823.58 2020.5 1780.5Z" stroke="#005EB8" stroke-width="6.875" stroke-miterlimit="8" fill="#F2F2F2" fill-rule="evenodd"/><path d="M1554.5 1475.5C1554.5 1432.42 1589.42 1397.5 1632.5 1397.5 1675.58 1397.5 1710.5 1432.42 1710.5 1475.5 1710.5 1518.58 1675.58 1553.5 1632.5 1553.5 1589.42 1553.5 1554.5 1518.58 1554.5 1475.5Z" stroke="#005EB8" stroke-width="6.875" stroke-miterlimit="8" fill="#F2F2F2" fill-rule="evenodd"/></g></svg>