<?xml version="1.0" encoding="UTF-8"?><svg xmlns="http://www.w3.org/2000/svg" version="1.1" xmlns:xlink="http://www.w3.org/1999/xlink" viewBox="0 0 512 512"><defs><style>.cls-1 {
        fill: #fff;
      }

      .cls-2 {
        filter: url(#drop-shadow-1);
      }

      .cls-3 {
        fill: #41897b;
      }</style><filter id="drop-shadow-1" x="53.4" y="82.4" width="401.5" height="357.1" filterUnits="userSpaceOnUse"><feOffset dx="5" dy="5"/><feGaussianBlur result="blur" stdDeviation="3"/><feFlood flood-color="#474545" flood-opacity=".5"/><feComposite in2="blur" operator="in"/><feComposite in="SourceGraphic"/></filter></defs><!--Generator: Adobe Illustrator 28.7.1, SVG Export Plug-In . SVG Version: 1.2.0 Build 142)--><g><g id="Layer_1"><g class="cls-2"><path class="cls-3" d="M356.5,398.5s-3.2-3.2-1.7-3.9c1.4-.8,3.3-2.2,6.9.9,3.6,3.2,6.3,5.7,12,3.8,5.7-1.9,10.7-7.7,13.2-3.3,2.5,4.4,2.4-.5,1.4,5.5-.9,6,6.1,2.5,1.6,6.6-4.6,4.1-4.1,5.5-6,10.2s-6.1,3.6-8.8,5.7c-2.7,2-5.2,2.1-7.7-.7-2.5-2.8-10.7-7.7-8-9.7,2.7-1.9,3.8-3,.9-7.9s-3.8-7.3-3.8-7.3Z"/><path class="cls-3" d="M293.1,235.5v-91.5c-2.6-.9-4.8-4.8-9.1-6.7-4.3-1.9-5.2-.8-6.1-3.4-.9-2.6-7.8-6.5-10.8-8.3s2.6-7.7,4.4-8.8c1.8-1.1,1.7-1.7-.9-4.3-2.6-2.6.7-4,2.6-4.3,1.9-.2,2.5,2.2,3.8,1.3,1.3-.9.1-3.4,2.1-4.7s2.1-3.5,0-4c-2.1-.5-2.8,1.3-4.1-.6-1.3-1.9-3-.7-7.1.7-4.1,1.4-7.4-1.3-10.3-2.2-2.8-.9-1.5-3.1-5.4-2.8-3.9.2-4.7-.7-5.9-2-1.2-1.3-2.6-1.4-5.4-2s-3.3-3.8-4-2.6c-.7,1.2,1.7,3,3.9,4,2.2,1.1,1.4.6,1.5,4.5.1,3.9-.7,3.2-5,2.8-4.3-.4-5.8,1.9-11.1,2.8-5.3.9-6.7.5-7.3,2.4s.6,4.5-2.1,4.3c-2.7-.2-.9,5.3-3.4,6.2-2.5.9-3,3.2-1.5,4.1,1.4.8,2,3.1,2,4.5s1.1,3-1.9,3.9c-1.8.6-3.4,0-4.8-.6v107.4h86.1Z"/><path class="cls-3" d="M205,128.9c-.9-.4-1.8-.9-2.6-1-1.9-.4-2.8.4-3.8,1.5-.9,1.2-2.6.9-2.5-.4,0-1.3-1-4.4-.2-4.3.8.1-.7-5.2-5.6-5.7-4.8-.5-4.8-2.4-8.2-2.7-3.3-.4-4.1,5.8-6.7,5.8s-2.6.9-3.5,5.8c-.9,4.8-.1,3-3.9,3.1-3.8.1-2.2,2.8-2.7,4.8-.5,2,2.6,3.8,0,5.2-2.6,1.4-6-.1-8.9,0-2.8.1,1.1,5.4.5,6.6-.6,1.2.7,3.4,0,4.8-.7,1.4-1.9,1.7-4.4-.7-2.5-2.4-2.2-5.6-2.5-7.4-.2-1.9-3.4.6-6.4,2.1-3,1.5-1.9,5-3.9,6-2,1.1,0,4.4,2,4.5,2,.1-1.7,10.1-4.3,8.6-2.7-1.6-1.3.5-6.1,4.7-4.9,4.3-9,5.7-14.8,6-5.8.3-5.7,4.3-9,3.8-3.3-.5-6.8,4.1-13.2,3.9-6.5-.2-7.1-.8-11.4,4.3-4.3,5-10.1,5.5-12.8,7.6-2.7,2,.9,5.5-1.9,6.5-2.8.9-3.2-4.1-4.6-3.9s-3.3,4-3.6,6.5c-.3,2.5,2.8,7.7-.8,11.4s.2,5.5,0,6.1c0,0,5,6.9,5.1,9.4.1,2.5,3.2,5.8,2,7.9-1.2,2.1,0,0-2.4-1.9-2.4-1.9-.6.7-1.8,3.9-1.2,3.2-1.9-.1-4,.2-2.1.4,5.1,7.3,6,13.1.9,5.8,4.5,3.4,5.3,6.5.8,3.1,0,5.4,2.5,8.3,2.5,2.8,2,4.4,1.5,13.1-.5,8.8,5.4,14.1,5.9,16.8.5,2.7,4.6,7,1.1,9.3-3.5,2.4-2,6-2.2,8.8-.2,2.7-.7,1.5-4.6,2.2-3.9.7-1.2,8.4,2.7,9.8,3.9,1.4,3,.6,9,4,6,3.4,15.3,1.4,18.7-.8,3.4-2.2,5.1-3.2,9.2-1.9,4.1,1.3,1.7-5.8,5.4-6.4s10.4-2.1,18.4.6c8,2.7,5.9-1.4,14.7-2,8.8-.6,3.9-10.6,10.4-10.8,6.5-.1,7.4-3.7,10.4-6.4,2.9-2.7,9.1-1.2,15-1.3,5.9-.1,9.2-3.5,13.8-5.4.9-.4,2.1-.6,3.5-.9v-170Z"/><path class="cls-3" d="M323.3,235.3v33.7h73.3l2.8-5,7.8,2.8,4.4,1.3,5.1.6v5.4h4.4v-2.5h2.9l1.5-5,14,.2c0,0,.1-.1.2-.2,2-1.1.5-6.4-1.8-11.4-2.2-5-3.5-13.8-2.7-17.6.8-3.8-4.4-6-5.4-9.8-1.1-3.8.6-1.9-5.2-6.9-5.8-5-11.6-8.9-12.4-14.7-.8-5.8-7.3-3.2-8.3-7.6-.9-4.4-10.6-15-9.9-17.5.7-2.5.2-3.3-4.5-4.2s-5.8-2.5-6-5.1c-.2-2.6-4.8-2.6-6.9-3.4-2-.8-7.1-2-4.8-5.6,2.2-3.5-1.7-1.5-2.7-6.1-1.1-4.6,2.2-2.4,0-6.3-2.2-3.9-.1-4.5-4.6-7-4.5-2.5-1.9-10.9-1.4-14.9.5-4-5.8-4.3-7.8-7.3-2-3.1-3.4,1.1-6.6.8-3.2-.2-3.8-9.3-3.4-13.4.4-4-3.8-4-2.7-6.9,1.1-2.8-1.5-4.7-3.1-7.4-1.5-2.7-.9-4.5-1.9-7.2-.9-2.7-4.8,3.3-5.9,7.3-1,4-.7,3.7-2.3,5.6-1.5,1.9,2.6,3.9,2.2,4.3-.4.4-1.5-.1-3,1.8-1.4,1.9.3,3.9-1.6,6.1-1.9,2.2,1.5,4.3,1.4,7.9-.1,3.7,1.2,6.1-1.5,9.5-2.7,3.3.8,10.5-1.2,11.6-2,1.1-3,5.4-5.6,8.9-2.6,3.4-12.5,3-15.3-1.5-2.7-4.5-7.3-3.8-9.9-4.7v91.5h28.3Z"/><path class="cls-3" d="M321.2,325.1h.1v-87.9h-114.4v62.5c6.3-1,17-.9,20.3-1.3,4-.5,8,1.8,11.6,4.1,3.5,2.4,5.7,1.5,11,1.9,5.3.4,10.6,6.6,9.3,10.6-1.3,4,3.7,5.2,5.9,8.5,2.2,3.3,1.9,9.2,5.8,9.7,3.9.5,3.4-2.1,5.8-7.9,2.4-5.8,3.3-1.9,6.1-3.4,2.8-1.5,1.4-2.2,3.5-5.2,2.1-3,5,.8,5.2,2.4.2,1.5-.2,3-3,5.7-2.7,2.7-.7,3.3-1.3,7-.6,3.7-1.3,4.7-5,5.4-3.7.7-3.1,4.1-1.8,4.4,1.3.2,2.1-3,4.5-3.2,2.4-.2,3.3-.4,5-2.7,1.7-2.4-.1-5.7,2.2-6.5,2.4-.8,3.3-2.1,3.4,2.1.1,4.3,3.2,3.9.7,6.1-2.5,2.2-2.6,5.9-.7,6,1.9.1,6.5,2.8,9.3,4.7,2.8,1.9,5.6,9.5,3.1,11.5-2.5,2,1.3,9.3,5.8,11.8,3.3,1.8,4.8,3.5,7.4,3.9v-50.3h-.1Z"/><path class="cls-3" d="M389.7,359.4h-2.9c0,0-1.9-6.6-1.9-6.6l-23.1-4.4-5.6,3-8.7-10.5h-3.2v-7l-5.4-2.9-2.2,1.3-4.4-5.4h-9v50.3c.9.1,2,.1,3.4,0,5.3-.8,7.3,2.5,12.2,4.3s6.3,3.2,7.9,2.8c1.7-.4,3.5-2.8,6.6-4.6,3.1-1.8,1.1-3.7,2.5-6,1.4-2.4,6.4-1.4,4.7-.1-1.7,1.3-2.4,4.6-.4,3.9,2-.7,6.5.1,5,1.5-1.5,1.4,2.2,7.7,4.6,4.3,2.4-3.4,6.3-1.2,9.7-3.3,3.4-2.1,4.7-6.6,10.2-6.6s8.5-1.2,10.9-2l-13.8-7.7,2.8-4.1Z"/><path class="cls-3" d="M439.7,268.5l-14-.2-1.5,5h-2.9v2.5h-4.4v-5.4l-5.1-.6-4.4-1.3-7.8-2.8-2.8,5h-73.3v54.2h9l4.4,5.4,2.2-1.3,5.4,2.9v6.9h3.2c0,.1,8.7,10.7,8.7,10.7l5.6-3,23.1,4.4,1.9,6.5h2.9c0,0-2.8,4.2-2.8,4.2l13.8,7.7s0,0,0,0c2.4-.8,5.1-3.9,4.7-7.6-.4-3.7,1.8-11.1,4.6-14.7,2.8-3.5,3.5-8.9,3-12.8-.6-3.9,5.2-8.4,5-12.1-.2-3.7-.6-3.8,2-4.1,2.6-.4,2.6-4.8,5-7.9,2.4-3.1,4.7-6.1,5.9-11s3.9-3.2,4.1-6.1c.2-3,.2-10.9,3.2-15.3,2.8-4.2,0-8,1.5-9.3Z"/></g><rect class="cls-1" x="425.1" y="248.5" width="5" height="5" rx="2.5" ry="2.5" transform="translate(-40.8 413.7) rotate(-49.6)"/><rect class="cls-1" x="363.5" y="414.9" width="5" height="5" rx="2.5" ry="2.5"/><rect class="cls-1" x="369.7" y="407" width="5" height="5" rx="2.5" ry="2.5"/><rect class="cls-1" x="307.8" y="337.4" width="5" height="5" rx="2.5" ry="2.5"/><rect class="cls-1" x="223.2" y="113.9" width="5" height="5" rx="2.5" ry="2.5"/><rect class="cls-1" x="364.7" y="366.8" width="5" height="5" rx="2.5" ry="2.5"/><rect class="cls-1" x="415.1" y="228.7" width="5" height="5" rx="2.5" ry="2.5"/><rect class="cls-1" x="397.4" y="211.6" width="5" height="5" rx="2.5" ry="2.5"/><rect class="cls-1" x="81.1" y="315.1" width="5" height="5" rx="2.5" ry="2.5"/><rect class="cls-1" x="406.8" y="315.1" width="5" height="5" rx="2.5" ry="2.5"/><rect class="cls-1" x="399.9" y="355.5" width="5" height="5" rx="2.5" ry="2.5"/><rect class="cls-1" x="420.1" y="301.2" width="5" height="5" rx="2.5" ry="2.5"/><rect class="cls-1" x="402.4" y="345.9" width="5" height="5" rx="2.5" ry="2.5"/><rect class="cls-1" x="180.4" y="128.3" width="5" height="5" rx="2.5" ry="2.5"/><rect class="cls-1" x="78.6" y="288.4" width="5" height="5" rx="2.5" ry="2.5"/><rect class="cls-1" x="422.6" y="237.1" width="5" height="5" rx="2.5" ry="2.5"/><rect class="cls-1" x="66.3" y="249.6" width="5" height="5" rx="2.5" ry="2.5"/><rect class="cls-1" x="336.5" y="99.2" width="5" height="5" rx="2.5" ry="2.5"/><rect class="cls-1" x="392.4" y="191.8" width="5" height="5" rx="2.5" ry="2.5"/><rect class="cls-1" x="73.6" y="200.5" width="5" height="5" rx="2.5" ry="2.5"/><rect class="cls-1" x="373.1" y="173.2" width="5" height="5" rx="2.5" ry="2.5"/><rect class="cls-1" x="385.7" y="180.3" width="5" height="5" rx="2.5" ry="2.5"/><rect class="cls-1" x="409.3" y="221.2" width="5" height="5" rx="2.5" ry="2.5"/><rect class="cls-1" x="76.1" y="276.6" width="5" height="5" rx="2.5" ry="2.5"/><rect class="cls-1" x="81.1" y="324.4" width="5" height="5" rx="2.5" ry="2.5"/><rect class="cls-1" x="414.3" y="242.1" width="5" height="5" rx="2.5" ry="2.5"/><rect class="cls-1" x="432.6" y="258.3" width="5" height="5" rx="2.5" ry="2.5"/><rect class="cls-1" x="420.1" y="252.1" width="5" height="5" rx="2.5" ry="2.5"/><rect class="cls-1" x="406.8" y="288.4" width="5" height="5" rx="2.5" ry="2.5"/><rect class="cls-1" x="397.4" y="274.1" width="5" height="5" rx="2.5" ry="2.5"/><rect class="cls-1" x="406.8" y="276.6" width="5" height="5" rx="2.5" ry="2.5"/><rect class="cls-1" x="411.8" y="301.2" width="5" height="5" rx="2.5" ry="2.5"/><rect class="cls-1" x="409.3" y="324.4" width="5" height="5" rx="2.5" ry="2.5"/><rect class="cls-1" x="331" y="92" width="5" height="5" rx="2.5" ry="2.5"/><rect class="cls-1" x="353.7" y="125.8" width="5" height="5" rx="2.5" ry="2.5"/><rect class="cls-1" x="339" y="113.9" width="5" height="5" rx="2.5" ry="2.5"/><rect class="cls-1" x="366" y="151.7" width="5" height="5" rx="2.5" ry="2.5"/><rect class="cls-1" x="358.7" y="137.4" width="5" height="5" rx="2.5" ry="2.5"/><rect class="cls-1" x="417.6" y="288.4" width="5" height="5" rx="2.5" ry="2.5"/><rect class="cls-1" x="420.1" y="280.9" width="5" height="5" rx="2.5" ry="2.5"/><rect class="cls-1" x="427.6" y="274.1" width="5" height="5" rx="2.5" ry="2.5"/><rect class="cls-1" x="427.6" y="285.9" width="5" height="5" rx="2.5" ry="2.5"/><rect class="cls-1" x="404.3" y="203" width="5" height="5" rx="2.5" ry="2.5"/><rect class="cls-1" x="61.3" y="218.7" width="5" height="5" rx="2.5" ry="2.5"/><rect class="cls-1" x="415.1" y="228.7" width="5" height="5" rx="2.5" ry="2.5"/><rect class="cls-1" x="415.1" y="228.7" width="5" height="5" rx="2.5" ry="2.5"/><rect class="cls-1" x="328.5" y="142.4" width="5" height="5" rx="2.5" ry="2.5"/><rect class="cls-1" x="374.7" y="183.1" width="5" height="5" rx="2.5" ry="2.5"/><rect class="cls-1" x="367.2" y="182.8" width="5" height="5" rx="2.5" ry="2.5"/><rect class="cls-1" x="430.1" y="242.1" width="5" height="5" rx="2.5" ry="2.5"/><rect class="cls-1" x="420.1" y="260.8" width="5" height="5" rx="2.5" ry="2.5"/><rect class="cls-1" x="408.4" y="268.1" width="5" height="5" rx="2.5" ry="2.5"/><rect class="cls-1" x="86.1" y="298.7" width="5" height="5" rx="2.5" ry="2.5"/><rect class="cls-1" x="331" y="118.9" width="5" height="5" rx="2.5" ry="2.5"/><rect class="cls-1" x="331" y="134.9" width="5" height="5" rx="2.5" ry="2.5"/><rect class="cls-1" x="341.5" y="149.2" width="5" height="5" rx="2.5" ry="2.5"/><rect class="cls-1" x="378.2" y="193" width="5" height="5" rx="2.5" ry="2.5"/><rect class="cls-1" x="390.7" y="200.5" width="5" height="5" rx="2.5" ry="2.5"/><rect class="cls-1" x="420.1" y="222.1" width="5" height="5" rx="2.5" ry="2.5"/><rect class="cls-1" x="410.9" y="211.6" width="5" height="5" rx="2.5" ry="2.5"/><rect class="cls-1" x="409.3" y="294.8" width="5" height="5" rx="2.5" ry="2.5"/><rect class="cls-1" x="402.4" y="321.9" width="5" height="5" rx="2.5" ry="2.5"/><rect class="cls-1" x="404.3" y="334.8" width="5" height="5" rx="2.5" ry="2.5"/><rect class="cls-1" x="414.3" y="308.7" width="5" height="5" rx="2.5" ry="2.5"/><rect class="cls-1" x="420.1" y="294.8" width="5" height="5" rx="2.5" ry="2.5"/><rect class="cls-1" x="345.8" y="298.7" width="5" height="5" rx="2.5" ry="2.5"/><rect class="cls-1" x="313.1" y="366.8" width="5" height="5" rx="2.5" ry="2.5"/><rect class="cls-1" x="310.3" y="350.5" width="5" height="5" rx="2.5" ry="2.5"/><rect class="cls-1" x="378.1" y="412.4" width="5" height="5" rx="2.5" ry="2.5"/><rect class="cls-1" x="358.7" y="397" width="5" height="5" rx="2.5" ry="2.5"/><rect class="cls-1" x="375.6" y="397" width="5" height="5" rx="2.5" ry="2.5"/><rect class="cls-1" x="380.6" y="402" width="5" height="5" rx="2.5" ry="2.5"/><rect class="cls-1" x="315.6" y="329.4" width="5" height="5" rx="2.5" ry="2.5"/><rect class="cls-1" x="326" y="343.4" width="5" height="5" rx="2.5" ry="2.5"/><rect class="cls-1" x="326" y="353" width="5" height="5" rx="2.5" ry="2.5"/><rect class="cls-1" x="334" y="360.5" width="5" height="5" rx="2.5" ry="2.5"/><rect class="cls-1" x="372.2" y="366.8" width="5" height="5" rx="2.5" ry="2.5"/><rect class="cls-1" x="339.7" y="366.8" width="5" height="5" rx="2.5" ry="2.5"/><rect class="cls-1" x="350.8" y="369.3" width="5" height="5" rx="2.5" ry="2.5"/><rect class="cls-1" x="328.5" y="369.3" width="5" height="5" rx="2.5" ry="2.5"/><rect class="cls-1" x="364.7" y="404.5" width="5" height="5" rx="2.5" ry="2.5"/><rect class="cls-1" x="373.1" y="372.8" width="5" height="5" rx="2.5" ry="2.5"/><rect class="cls-1" x="339" y="375.3" width="5" height="5" rx="2.5" ry="2.5"/><rect class="cls-1" x="331" y="303.7" width="5" height="5" rx="2.5" ry="2.5"/><rect class="cls-1" x="402.4" y="301.2" width="5" height="5" rx="2.5" ry="2.5"/><rect class="cls-1" x="399.9" y="285.9" width="5" height="5" rx="2.5" ry="2.5"/><rect class="cls-1" x="339" y="278.4" width="5" height="5" rx="2.5" ry="2.5"/><rect class="cls-1" x="362.2" y="288.4" width="5" height="5" rx="2.5" ry="2.5"/><rect class="cls-1" x="256" y="247.1" width="5" height="5" rx="2.5" ry="2.5"/><rect class="cls-1" x="109.7" y="211.6" width="5" height="5" rx="2.5" ry="2.5"/><rect class="cls-1" x="100.4" y="182.8" width="5" height="5" rx="2.5" ry="2.5"/><rect class="cls-1" x="265.9" y="132.4" width="5" height="5" rx="2.5" ry="2.5"/><rect class="cls-1" x="262.1" y="101.8" width="5" height="5" rx="2.5" ry="2.5"/><rect class="cls-1" x="235.4" y="104.3" width="5" height="5" rx="2.5" ry="2.5"/><rect class="cls-1" x="213.7" y="159.7" width="5" height="5" rx="2.5" ry="2.5"/><rect class="cls-1" x="216.2" y="212.1" width="5" height="5" rx="2.5" ry="2.5"/><rect class="cls-1" x="220.7" y="239.6" width="5" height="5" rx="2.5" ry="2.5"/><rect class="cls-1" x="211.2" y="288.4" width="5" height="5" rx="2.5" ry="2.5"/><rect class="cls-1" x="228.2" y="285.9" width="5" height="5" rx="2.5" ry="2.5"/><rect class="cls-1" x="263.4" y="301.2" width="5" height="5" rx="2.5" ry="2.5"/><rect class="cls-1" x="294.8" y="263.3" width="5" height="5" rx="2.5" ry="2.5"/><rect class="cls-1" x="361.2" y="303.7" width="5" height="5" rx="2.5" ry="2.5"/><rect class="cls-1" x="331" y="101.8" width="5" height="5" rx="2.5" ry="2.5"/><rect class="cls-1" x="345.8" y="121.4" width="5" height="5" rx="2.5" ry="2.5"/><rect class="cls-1" x="359.7" y="146.7" width="5" height="5" rx="2.5" ry="2.5"/><rect class="cls-1" x="380.7" y="173.2" width="5" height="5" rx="2.5" ry="2.5"/><rect class="cls-1" x="369.7" y="167.2" width="5" height="5" rx="2.5" ry="2.5"/><rect class="cls-1" x="318.1" y="149.2" width="5" height="5" rx="2.5" ry="2.5"/><rect class="cls-1" x="287.3" y="142.4" width="5" height="5" rx="2.5" ry="2.5"/><rect class="cls-1" x="277.7" y="154.2" width="5" height="5" rx="2.5" ry="2.5"/><rect class="cls-1" x="272.7" y="185.3" width="5" height="5" rx="2.5" ry="2.5"/><rect class="cls-1" x="237.9" y="208" width="5" height="5" rx="2.5" ry="2.5"/><rect class="cls-1" x="246.8" y="185.3" width="5" height="5" rx="2.5" ry="2.5"/><rect class="cls-1" x="240.4" y="128.3" width="5" height="5" rx="2.5" ry="2.5"/><rect class="cls-1" x="313.1" y="203" width="5" height="5" rx="2.5" ry="2.5"/><rect class="cls-1" x="315.6" y="162.2" width="5" height="5" rx="2.5" ry="2.5"/><rect class="cls-1" x="397.5" y="198" width="5" height="5" rx="2.5" ry="2.5"/><rect class="cls-1" x="275.2" y="252.1" width="5" height="5" rx="2.5" ry="2.5"/><rect class="cls-1" x="291.8" y="324.4" width="5" height="5" rx="2.5" ry="2.5"/><rect class="cls-1" x="297.3" y="326.9" width="5" height="5" rx="2.5" ry="2.5"/><rect class="cls-1" x="361.2" y="355.5" width="5" height="5" rx="2.5" ry="2.5"/><rect class="cls-1" x="341.5" y="350.5" width="5" height="5" rx="2.5" ry="2.5"/><rect class="cls-1" x="383.2" y="366.8" width="5" height="5" rx="2.5" ry="2.5"/><rect class="cls-1" x="356.2" y="366.8" width="5" height="5" rx="2.5" ry="2.5"/><rect class="cls-1" x="425.1" y="231.2" width="5" height="5" rx="2.5" ry="2.5"/><rect class="cls-1" x="86.1" y="329.4" width="5" height="5" rx="2.5" ry="2.5"/><rect class="cls-1" x="432.6" y="267.3" width="5" height="5" rx="2.5" ry="2.5"/><rect class="cls-1" x="391.2" y="334.8" width="5" height="5" rx="2.5" ry="2.5"/><rect class="cls-1" x="393.2" y="353" width="5" height="5" rx="2.5" ry="2.5"/><rect class="cls-1" x="394.9" y="339.9" width="5" height="5" rx="2.5" ry="2.5"/><rect class="cls-1" x="397.4" y="326.9" width="5" height="5" rx="2.5" ry="2.5"/><rect class="cls-1" x="359.7" y="317.6" width="5" height="5" rx="2.5" ry="2.5"/><rect class="cls-1" x="353.3" y="326.9" width="5" height="5" rx="2.5" ry="2.5"/><rect class="cls-1" x="347.1" y="321.9" width="5" height="5" rx="2.5" ry="2.5"/><rect class="cls-1" x="397.5" y="308.7" width="5" height="5" rx="2.5" ry="2.5"/><rect class="cls-1" x="397.5" y="314.1" width="5" height="5" rx="2.5" ry="2.5"/><rect class="cls-1" x="395" y="296.2" width="5" height="5" rx="2.5" ry="2.5"/><rect class="cls-1" x="63.8" y="244.6" width="5" height="5" rx="2.5" ry="2.5"/><rect class="cls-1" x="83.6" y="306.9" width="5" height="5" rx="2.5" ry="2.5"/><rect class="cls-1" x="93" y="308.7" width="5" height="5" rx="2.5" ry="2.5"/><rect class="cls-1" x="76.1" y="260.8" width="5" height="5" rx="2.5" ry="2.5"/><rect class="cls-1" x="93" y="324.4" width="5" height="5" rx="2.5" ry="2.5"/><rect class="cls-1" x="150.4" y="315.1" width="5" height="5" rx="2.5" ry="2.5"/><rect class="cls-1" x="143.5" y="278.4" width="5" height="5" rx="2.5" ry="2.5"/><rect class="cls-1" x="152.9" y="258.1" width="5" height="5" rx="2.5" ry="2.5"/><rect class="cls-1" x="130.5" y="226.2" width="5" height="5" rx="2.5" ry="2.5"/><rect class="cls-1" x="193.1" y="132.4" width="5" height="5" rx="2.5" ry="2.5"/><rect class="cls-1" x="114.7" y="178.2" width="5" height="5" rx="2.5" ry="2.5"/><rect class="cls-1" x="102.9" y="326.4" width="5" height="5" rx="2.5" ry="2.5"/><rect class="cls-1" x="100.4" y="317.6" width="5" height="5" rx="2.5" ry="2.5"/><rect class="cls-1" x="100.4" y="308.7" width="5" height="5" rx="2.5" ry="2.5"/><rect class="cls-1" x="100.4" y="298.7" width="5" height="5" rx="2.5" ry="2.5"/><rect class="cls-1" x="88.6" y="285.9" width="5" height="5" rx="2.5" ry="2.5"/><rect class="cls-1" x="83.6" y="279.1" width="5" height="5" rx="2.5" ry="2.5"/><rect class="cls-1" x="71.1" y="268.1" width="5" height="5" rx="2.5" ry="2.5"/><rect class="cls-1" x="78.6" y="267.3" width="5" height="5" rx="2.5" ry="2.5"/><rect class="cls-1" x="68.8" y="258.1" width="5" height="5" rx="2.5" ry="2.5"/><rect class="cls-1" x="71.1" y="239.6" width="5" height="5" rx="2.5" ry="2.5"/><rect class="cls-1" x="68.8" y="228.7" width="5" height="5" rx="2.5" ry="2.5"/><rect class="cls-1" x="63.8" y="210.5" width="5" height="5" rx="2.5" ry="2.5"/><rect class="cls-1" x="86.1" y="191.8" width="5" height="5" rx="2.5" ry="2.5"/><rect class="cls-1" x="78.6" y="222.1" width="5" height="5" rx="2.5" ry="2.5"/><rect class="cls-1" x="163" y="142.4" width="5" height="5" rx="2.5" ry="2.5"/><rect class="cls-1" x="146" y="159.7" width="5" height="5" rx="2.5" ry="2.5"/><rect class="cls-1" x="128" y="175.7" width="5" height="5" rx="2.5" ry="2.5"/><rect class="cls-1" x="385.7" y="195.5" width="5" height="5" rx="2.5" ry="2.5"/><rect class="cls-1" x="391.2" y="185.3" width="5" height="5" rx="2.5" ry="2.5"/><rect class="cls-1" x="404.9" y="308.7" width="5" height="5" rx="2.5" ry="2.5"/><rect class="cls-1" x="393.7" y="345.9" width="5" height="5" rx="2.5" ry="2.5"/><rect class="cls-1" x="73.6" y="282.5" width="5" height="5" rx="2.5" ry="2.5"/><rect class="cls-1" x="83.6" y="293.7" width="5" height="5" rx="2.5" ry="2.5"/><rect class="cls-1" x="73.6" y="321.9" width="5" height="5" rx="2.5" ry="2.5"/><rect class="cls-1" x="107.2" y="317.6" width="5" height="5" rx="2.5" ry="2.5"/><rect class="cls-1" x="90.7" y="317.6" width="5" height="5" rx="2.5" ry="2.5"/><rect class="cls-1" x="372.2" y="417.4" width="5" height="5" rx="2.5" ry="2.5"/><rect class="cls-1" x="299.8" y="293.7" width="5" height="5" rx="2.5" ry="2.5"/><rect class="cls-1" x="310.6" y="298.7" width="5" height="5" rx="2.5" ry="2.5"/><rect class="cls-1" x="379.6" y="283.4" width="5" height="5" rx="2.5" ry="2.5"/><rect class="cls-1" x="399.9" y="221.3" width="5" height="5" rx="2.5" ry="2.5"/><rect class="cls-1" x="414.3" y="234.6" width="5" height="5" rx="2.5" ry="2.5"/><rect class="cls-1" x="383.2" y="185.3" width="5" height="5" rx="2.5" ry="2.5"/><rect class="cls-1" x="344" y="128.3" width="5" height="5" rx="2.5" ry="2.5"/><rect class="cls-1" x="353.3" y="130.8" width="5" height="5" rx="2.5" ry="2.5"/><rect class="cls-1" x="320.6" y="182.8" width="5" height="5" rx="2.5" ry="2.5"/><rect class="cls-1" x="313.1" y="239.6" width="5" height="5" rx="2.5" ry="2.5"/><rect class="cls-1" x="228.2" y="258.3" width="5" height="5" rx="2.5" ry="2.5"/><rect class="cls-1" x="270.2" y="219.6" width="5" height="5" rx="2.5" ry="2.5"/><rect class="cls-1" x="265.9" y="159.7" width="5" height="5" rx="2.5" ry="2.5"/><rect class="cls-1" x="277.7" y="164.7" width="5" height="5" rx="2.5" ry="2.5"/><rect class="cls-1" x="251.8" y="101.8" width="5" height="5" rx="2.5" ry="2.5"/><rect class="cls-1" x="216.2" y="106.8" width="5" height="5" rx="2.5" ry="2.5"/><rect class="cls-1" x="244.3" y="96.7" width="5" height="5" rx="2.5" ry="2.5"/><rect class="cls-1" x="157.9" y="149.2" width="5" height="5" rx="2.5" ry="2.5"/><rect class="cls-1" x="93" y="242.1" width="5" height="5" rx="2.5" ry="2.5"/><rect class="cls-1" x="339" y="106.8" width="5" height="5" rx="2.5" ry="2.5"/><rect class="cls-1" x="353.3" y="139.9" width="5" height="5" rx="2.5" ry="2.5"/><rect class="cls-1" x="361.2" y="162" width="5" height="5" rx="2.5" ry="2.5"/><rect class="cls-1" x="348.3" y="162.2" width="5" height="5" rx="2.5" ry="2.5"/><rect class="cls-1" x="339" y="194.3" width="5" height="5" rx="2.5" ry="2.5"/><rect class="cls-1" x="337.2" y="175.7" width="5" height="5" rx="2.5" ry="2.5"/><rect class="cls-1" x="157.9" y="209.1" width="5" height="5" rx="2.5" ry="2.5"/><rect class="cls-1" x="185.4" y="185.6" width="5" height="5" rx="2.5" ry="2.5"/><rect class="cls-1" x="109.7" y="278.4" width="5" height="5" rx="2.5" ry="2.5"/><rect class="cls-1" x="71.3" y="212.1" width="5" height="5" rx="2.5" ry="2.5"/><rect class="cls-1" x="150.4" y="178.2" width="5" height="5" rx="2.5" ry="2.5"/><rect class="cls-1" x="262.1" y="271.6" width="5" height="5" rx="2.5" ry="2.5"/><rect class="cls-1" x="270.2" y="309.4" width="5" height="5" rx="2.5" ry="2.5"/><rect class="cls-1" x="275.2" y="317.6" width="5" height="5" rx="2.5" ry="2.5"/><rect class="cls-1" x="235.4" y="294.8" width="5" height="5" rx="2.5" ry="2.5"/><rect class="cls-1" x="247.7" y="297.3" width="5" height="5" rx="2.5" ry="2.5"/><rect class="cls-1" x="267.7" y="326.9" width="5" height="5" rx="2.5" ry="2.5"/><rect class="cls-1" x="263.4" y="317.6" width="5" height="5" rx="2.5" ry="2.5"/><rect class="cls-1" x="299.8" y="185.6" width="5" height="5" rx="2.5" ry="2.5"/><rect class="cls-1" x="377.2" y="209.1" width="5" height="5" rx="2.5" ry="2.5"/><rect class="cls-1" x="406.8" y="233" width="5" height="5" rx="2.5" ry="2.5"/><rect class="cls-1" x="410.9" y="256.4" width="5" height="5" rx="2.5" ry="2.5"/><rect class="cls-1" x="398.2" y="256.4" width="5" height="5" rx="2.5" ry="2.5"/><rect class="cls-1" x="345.8" y="247.1" width="5" height="5" rx="2.5" ry="2.5"/><rect class="cls-1" x="336.5" y="234.6" width="5" height="5" rx="2.5" ry="2.5"/><rect class="cls-1" x="369.7" y="190.5" width="5" height="5" rx="2.5" ry="2.5"/><rect class="cls-1" x="397.5" y="206.6" width="5" height="5" rx="2.5" ry="2.5"/><rect class="cls-1" x="375.6" y="255.8" width="5" height="5" rx="2.5" ry="2.5"/><rect class="cls-1" x="378.1" y="337.3" width="5" height="5" rx="2.5" ry="2.5"/><rect class="cls-1" x="378.1" y="337.3" width="5" height="5" rx="2.5" ry="2.5"/><rect class="cls-1" x="378.1" y="337.3" width="5" height="5" rx="2.5" ry="2.5"/><rect class="cls-1" x="368.5" y="210.5" width="5" height="5" rx="2.5" ry="2.5"/><rect class="cls-1" x="193.1" y="226.2" width="5" height="5" rx="2.5" ry="2.5"/><rect class="cls-1" x="182.9" y="285" width="5" height="5" rx="2.5" ry="2.5"/><rect class="cls-1" x="195.6" y="282.5" width="5" height="5" rx="2.5" ry="2.5"/><rect class="cls-1" x="133" y="317.6" width="5" height="5" rx="2.5" ry="2.5"/><rect class="cls-1" x="180.4" y="297.3" width="5" height="5" rx="2.5" ry="2.5"/><rect class="cls-1" x="379.7" y="310.3" width="5" height="5" rx="2.5" ry="2.5"/><rect class="cls-1" x="359.5" y="154.2" width="5" height="5" rx="2.5" ry="2.5"/><rect class="cls-1" x="363.5" y="175.7" width="5" height="5" rx="2.5" ry="2.5"/><rect class="cls-1" x="366.5" y="159.7" width="5" height="5" rx="2.5" ry="2.5"/><rect class="cls-1" x="381.1" y="200" width="5" height="5" rx="2.5" ry="2.5"/><rect class="cls-1" x="359.7" y="221.3" width="5" height="5" rx="2.5" ry="2.5"/><rect class="cls-1" x="385.7" y="230.5" width="5" height="5" rx="2.5" ry="2.5"/><rect class="cls-1" x="404.4" y="214.1" width="5" height="5" rx="2.5" ry="2.5"/><rect class="cls-1" x="349.6" y="137.4" width="5" height="5" rx="2.5" ry="2.5"/><rect class="cls-1" x="389" y="208" width="5" height="5" rx="2.5" ry="2.5"/><rect class="cls-1" x="297.3" y="228.7" width="5" height="5" rx="2.5" ry="2.5"/><rect class="cls-1" x="328.5" y="214.6" width="5" height="5" rx="2.5" ry="2.5"/><rect class="cls-1" x="368.3" y="198" width="5" height="5" rx="2.5" ry="2.5"/></g></g></svg>