<svg width="4715" height="1620" xmlns="http://www.w3.org/2000/svg" xmlns:xlink="http://www.w3.org/1999/xlink" xml:space="preserve" overflow="hidden"><g transform="translate(43 -206)"><path d="M2174.5 538.5 2174.5 739.262" stroke="#007A6D" stroke-width="6.875" stroke-miterlimit="8" fill="none" fill-rule="evenodd"/><path d="M1442.5 1174.5 1442.6 1364.23" stroke="#007A6D" stroke-width="6.875" stroke-miterlimit="8" fill="none" fill-rule="evenodd"/><path d="M481.5 936.168C481.5 909.842 502.842 888.5 529.168 888.5L2355.83 888.5C2382.16 888.5 2403.5 909.842 2403.5 936.168L2403.5 1126.83C2403.5 1153.16 2382.16 1174.5 2355.83 1174.5L529.168 1174.5C502.842 1174.5 481.5 1153.16 481.5 1126.83Z" stroke="#007A6D" stroke-width="6.875" stroke-miterlimit="8" fill="#007A6D" fill-rule="evenodd" fill-opacity="0.0588235"/><text font-family="Arial,Arial_MSFontService,sans-serif" font-weight="400" font-size="83" transform="matrix(1 0 0 1 1206.02 1065)">Public sector</text><path d="M2891.5 1025.33C2891.5 942.031 2959.03 874.5 3042.33 874.5L4078.67 874.5C4161.97 874.5 4229.5 942.031 4229.5 1025.33L4229.5 1628.67C4229.5 1711.97 4161.97 1779.5 4078.67 1779.5L3042.33 1779.5C2959.03 1779.5 2891.5 1711.97 2891.5 1628.67Z" stroke="#007A6D" stroke-width="6.875" stroke-miterlimit="8" fill="#007A6D" fill-rule="evenodd" fill-opacity="0.0588235"/><text font-family="Arial,Arial_MSFontService,sans-serif" font-weight="400" font-size="83" transform="matrix(1 0 0 1 3085.99 1352)">Other government </text><text font-family="Arial,Arial_MSFontService,sans-serif" font-weight="400" font-size="83" transform="matrix(1 0 0 1 3773.49 1352)">entities</text><path d="M948.334 538.5C918.05 538.5 893.5 513.95 893.5 483.666L893.5 264.335C893.5 234.05 918.05 209.5 948.334 209.5L3400.66 209.5C3430.95 209.5 3455.5 234.05 3455.5 264.335L3455.5 483.666C3455.5 513.95 3430.95 538.5 3400.66 538.5Z" stroke="#007A6D" stroke-width="6.875" stroke-miterlimit="8" fill="#007A6D" fill-rule="evenodd" fill-opacity="0.0588235"/><text font-family="Arial,Arial_MSFontService,sans-serif" font-weight="400" font-size="92" transform="matrix(1 0 0 1 1621.82 401)">Queensland Government</text><path d="M1472.5 1584.17C1472.5 1557.84 1493.84 1536.5 1520.17 1536.5L2591.83 1536.5C2618.16 1536.5 2639.5 1557.84 2639.5 1584.17L2639.5 1774.83C2639.5 1801.16 2618.16 1822.5 2591.83 1822.5L1520.17 1822.5C1493.84 1822.5 1472.5 1801.16 1472.5 1774.83Z" stroke="#007A6D" stroke-width="6.875" stroke-miterlimit="8" fill="#007A6D" fill-rule="evenodd" fill-opacity="0.0588235"/><text font-family="Arial,Arial_MSFontService,sans-serif" font-weight="400" font-size="83" transform="matrix(1 0 0 1 1801.33 1710)">Public service</text><path d="M208.5 1576.17C208.5 1549.84 229.841 1528.5 256.167 1528.5L1327.83 1528.5C1354.16 1528.5 1375.5 1549.84 1375.5 1576.17L1375.5 1766.83C1375.5 1793.16 1354.16 1814.5 1327.83 1814.5L256.167 1814.5C229.841 1814.5 208.5 1793.16 208.5 1766.83Z" stroke="#007A6D" stroke-width="6.875" stroke-miterlimit="8" fill="#007A6D" fill-rule="evenodd" fill-opacity="0.0588235"/><text font-family="Arial,Arial_MSFontService,sans-serif" font-weight="400" font-size="83" transform="matrix(1 0 0 1 303.179 1701)">Other public sector entities</text><path d="M1442.5 739.5 3562.51 739.5" stroke="#007A6D" stroke-width="6.875" stroke-miterlimit="8" fill="none" fill-rule="evenodd"/><path d="M0 0 0.0985236 152.553" stroke="#007A6D" stroke-width="6.875" stroke-miterlimit="8" fill="none" fill-rule="evenodd" transform="matrix(-1 0 0 1 1442.6 736.5)"/><path d="M3560.5 741.5 3560.5 874.983" stroke="#007A6D" stroke-width="6.875" stroke-miterlimit="8" fill="none" fill-rule="evenodd"/><path d="M791.5 1364.5 2055.9 1364.5" stroke="#007A6D" stroke-width="6.875" stroke-miterlimit="8" fill="none" fill-rule="evenodd"/><path d="M791.5 1360.5 791.501 1528.61" stroke="#007A6D" stroke-width="6.875" stroke-miterlimit="8" fill="none" fill-rule="evenodd"/><path d="M2056.5 1360.5 2056.5 1536.7" stroke="#007A6D" stroke-width="6.875" stroke-miterlimit="8" fill="none" fill-rule="evenodd"/></g></svg>