<svg width="3463" height="2805" xmlns="http://www.w3.org/2000/svg" xmlns:xlink="http://www.w3.org/1999/xlink" xml:space="preserve" overflow="hidden"><g transform="translate(-473 -41)"><path d="M476.5 1093.17C476.5 993.389 557.389 912.5 657.171 912.5L1379.83 912.5C1479.61 912.5 1560.5 993.389 1560.5 1093.17L1560.5 2653.83C1560.5 2753.61 1479.61 2834.5 1379.83 2834.5L657.171 2834.5C557.389 2834.5 476.5 2753.61 476.5 2653.83Z" stroke="#2C8475" stroke-width="6.875" stroke-miterlimit="8" fill="#2C8475" fill-rule="evenodd" fill-opacity="0.0588235"/><path d="M1660.5 1097.34C1660.5 997.463 1741.46 916.5 1841.34 916.5L2564.66 916.5C2664.54 916.5 2745.5 997.463 2745.5 1097.34L2745.5 2657.66C2745.5 2757.54 2664.54 2838.5 2564.66 2838.5L1841.34 2838.5C1741.46 2838.5 1660.5 2757.54 1660.5 2657.66Z" stroke="#2C8475" stroke-width="6.875" stroke-miterlimit="8" fill="#2C8475" fill-rule="evenodd" fill-opacity="0.0588235"/><path d="M1719 1520.84C1719 1457.97 1769.97 1407 1832.84 1407L2575.17 1407C2638.03 1407 2689 1457.97 2689 1520.84L2689 1976.16C2689 2039.03 2638.03 2090 2575.17 2090L1832.84 2090C1769.97 2090 1719 2039.03 1719 1976.16Z" fill="#2C8475" fill-rule="evenodd" fill-opacity="0.25098"/><text font-family="Arial,Arial_MSFontService,sans-serif" font-weight="400" font-size="92" transform="matrix(1 0 0 1 2043.68 1562)">Premier</text><text font-family="Arial,Arial_MSFontService,sans-serif" font-weight="400" font-size="92" transform="matrix(1 0 0 1 2020.76 1782)">Ministers</text><text font-family="Arial,Arial_MSFontService,sans-serif" font-weight="400" font-size="92" transform="matrix(1 0 0 1 2045.97 2002)">Cabinet</text><path d="M0 0 0.588615 126.811" stroke="#2C8475" stroke-width="20.625" stroke-miterlimit="8" fill="none" fill-rule="evenodd" transform="matrix(-1 0 0 1 2205.09 2090.5)"/><path d="M2848.5 1097.17C2848.5 997.388 2929.39 916.5 3029.17 916.5L3751.83 916.5C3851.61 916.5 3932.5 997.388 3932.5 1097.17L3932.5 2656.83C3932.5 2756.61 3851.61 2837.5 3751.83 2837.5L3029.17 2837.5C2929.39 2837.5 2848.5 2756.61 2848.5 2656.83Z" stroke="#2C8475" stroke-width="6.875" stroke-miterlimit="8" fill="#2C8475" fill-rule="evenodd" fill-opacity="0.0588235"/><path d="M1336.5 150.502C1336.5 91.9587 1383.96 44.4998 1442.5 44.4998L2963.5 44.4998C3022.04 44.4998 3069.5 91.9587 3069.5 150.502L3069.5 574.498C3069.5 633.041 3022.04 680.5 2963.5 680.5L1442.5 680.5C1383.96 680.5 1336.5 633.041 1336.5 574.498Z" stroke="#2C8475" stroke-width="6.875" stroke-miterlimit="8" fill="#2C8475" fill-rule="evenodd" fill-opacity="0.0588235"/><text font-family="Arial,Arial_MSFontService,sans-serif" font-weight="400" font-size="92" transform="matrix(1 0 0 1 1920.02 396)">The Governor </text><text font-family="Arial,Arial_MSFontService,sans-serif" font-weight="400" font-size="92" transform="matrix(1 0 0 1 1612.34 506)">(Sovereign’s Representative)</text><path d="M1718 1079.43C1718 1030.59 1757.59 991 1806.43 991L2600.57 991C2649.41 991 2689 1030.59 2689 1079.43L2689 1135.57C2689 1184.41 2649.41 1224 2600.57 1224L1806.43 1224C1757.59 1224 1718 1184.41 1718 1135.57Z" fill="#2C8475" fill-rule="evenodd" fill-opacity="0.25098"/><text font-family="Arial,Arial_MSFontService,sans-serif" font-weight="400" font-size="83" transform="matrix(1 0 0 1 1875.65 1138)">Executive Council</text><path d="M1718 2332.46C1718 2268.14 1770.14 2216 1834.46 2216L2572.54 2216C2636.86 2216 2689 2268.14 2689 2332.46L2689 2332.54C2689 2396.86 2636.86 2449 2572.54 2449L1834.46 2449C1770.14 2449 1718 2396.86 1718 2332.54Z" fill="#2C8475" fill-rule="evenodd" fill-opacity="0.25098"/><text font-family="Arial,Arial_MSFontService,sans-serif" font-weight="400" font-size="83" transform="matrix(1 0 0 1 1967.46 2363)">Public </text><text font-family="Arial,Arial_MSFontService,sans-serif" font-weight="400" font-size="83" transform="matrix(1 0 0 1 2214.96 2363)">se</text><text font-family="Arial,Arial_MSFontService,sans-serif" font-weight="400" font-size="83" transform="matrix(1 0 0 1 2302.05 2363)">ctor</text><text font-family="Arial,Arial_MSFontService,sans-serif" font-weight="400" font-size="92" transform="matrix(1 0 0 1 3146.03 1691)">Queensland </text><text font-family="Arial,Arial_MSFontService,sans-serif" font-weight="400" font-size="92" transform="matrix(1 0 0 1 3258.32 1801)">Courts </text><text font-family="Arial,Arial_MSFontService,sans-serif" font-weight="400" font-size="92" transform="matrix(1 0 0 1 802.586 1691)">Legislative </text><text font-family="Arial,Arial_MSFontService,sans-serif" font-weight="400" font-size="92" transform="matrix(1 0 0 1 820.644 1801)">Assembly</text><path d="M2212.81 680.5 2212.81 864.61 2192.19 864.61 2192.19 680.5ZM2233.44 854.298 2202.5 916.173 2171.56 854.298Z" fill="#2C8475"/><path d="M2214.02 1276.02 2214.34 1356.09 2193.72 1356.17 2193.4 1276.1ZM2172.81 1286.5 2203.5 1224.5 2234.69 1286.25ZM2234.93 1345.7 2204.24 1407.7 2173.05 1345.95Z" fill="#2C8475"/><path d="M2849 2666.5C2849 2572.89 2924.89 2497 3018.5 2497L3755.5 2497C3849.11 2497 3925 2572.89 3925 2666.5L3925 2666.5C3925 2760.11 3849.11 2836 3755.5 2836L3018.5 2836C2924.89 2836 2849 2760.11 2849 2666.5Z" fill="#2C8475" fill-rule="evenodd"/><text fill="#FFFFFF" font-family="Arial,Arial_MSFontService,sans-serif" font-weight="700" font-size="92" transform="matrix(1 0 0 1 3186.01 2618)">Judiciary</text><text fill="#FFFFFF" font-family="Arial,Arial_MSFontService,sans-serif" font-weight="400" font-size="69" transform="matrix(1 0 0 1 3048.51 2706)">Power to interpret and </text><text fill="#FFFFFF" font-family="Arial,Arial_MSFontService,sans-serif" font-weight="400" font-size="69" transform="matrix(1 0 0 1 3226.12 2788)">apply laws</text><path d="M479 2667.5C479 2574.44 554.44 2499 647.5 2499L1395.5 2499C1488.56 2499 1564 2574.44 1564 2667.5L1564 2667.5C1564 2760.56 1488.56 2836 1395.5 2836L647.5 2836C554.44 2836 479 2760.56 479 2667.5Z" fill="#2C8475" fill-rule="evenodd"/><text fill="#FFFFFF" font-family="Arial,Arial_MSFontService,sans-serif" font-weight="700" font-size="92" transform="matrix(1 0 0 1 787.325 2661)">Parliament</text><text fill="#FFFFFF" font-family="Arial,Arial_MSFontService,sans-serif" font-weight="400" font-size="69" transform="matrix(1 0 0 1 713.419 2749)">Power to make laws</text><path d="M1661 2667.5C1661 2573.34 1737.34 2497 1831.5 2497L2575.5 2497C2669.66 2497 2746 2573.34 2746 2667.5L2746 2667.5C2746 2761.66 2669.66 2838 2575.5 2838L1831.5 2838C1737.34 2838 1661 2761.66 1661 2667.5Z" fill="#2C8475" fill-rule="evenodd"/><text fill="#FFFFFF" font-family="Arial,Arial_MSFontService,sans-serif" font-weight="700" font-size="92" transform="matrix(1 0 0 1 1989.3 2661)">Executive</text><text fill="#FFFFFF" font-family="Arial,Arial_MSFontService,sans-serif" font-weight="400" font-size="69" transform="matrix(1 0 0 1 1820.56 2749)">Power to implement laws</text><path d="M1336 146.5C1336 89.8908 1381.89 44 1438.5 44L2966.5 44C3023.11 44 3069 89.8908 3069 146.5L3069 146.5C3069 203.109 3023.11 249 2966.5 249L1438.5 249C1381.89 249 1336 203.109 1336 146.5Z" fill="#2C8475" fill-rule="evenodd"/><text fill="#FFFFFF" font-family="Arial,Arial_MSFontService,sans-serif" font-weight="700" font-size="92" transform="matrix(1 0 0 1 1965.58 180)">The Crown</text></g></svg>