<?xml version="1.0" encoding="UTF-8"?><svg xmlns="http://www.w3.org/2000/svg" version="1.1" xmlns:xlink="http://www.w3.org/1999/xlink" viewBox="0 0 512 512"><defs><style>.cls-1 {
        fill: #fff;
      }

      .cls-2 {
        fill: #61c4ae;
      }

      .cls-3 {
        filter: url(#drop-shadow-1);
      }

      .cls-4 {
        fill: #41897b;
      }</style><filter id="drop-shadow-1" x="52" y="82" width="403" height="358" filterUnits="userSpaceOnUse"><feOffset dx="5" dy="5"/><feGaussianBlur result="blur" stdDeviation="3"/><feFlood flood-color="#474545" flood-opacity=".5"/><feComposite in2="blur" operator="in"/><feComposite in="SourceGraphic"/></filter></defs><!--Generator: Adobe Illustrator 28.7.1, SVG Export Plug-In . SVG Version: 1.2.0 Build 142)--><g><g id="Layer_1"><g class="cls-3"><path class="cls-2" d="M355.8,398.5s-3.2-3.2-1.7-3.9c1.4-.8,3.3-2.2,6.9.9,3.6,3.2,6.3,5.7,12,3.8,5.7-1.9,10.7-7.7,13.2-3.3,2.5,4.4,2.4-.5,1.4,5.5-.9,6,6.1,2.5,1.6,6.6-4.6,4.1-4.1,5.5-6,10.2s-6.1,3.6-8.8,5.7c-2.7,2-5.2,2.1-7.7-.7-2.5-2.8-10.7-7.7-8-9.7,2.7-1.9,3.8-3,.9-7.9s-3.8-7.3-3.8-7.3Z"/><path class="cls-2" d="M292.3,235.5v-91.5c-2.6-.9-4.8-4.8-9.1-6.7-4.3-1.9-5.2-.8-6.1-3.4-.9-2.6-7.8-6.5-10.8-8.3s2.6-7.7,4.4-8.8c1.8-1.1,1.7-1.7-.9-4.3-2.6-2.6.7-4,2.6-4.3,1.9-.2,2.5,2.2,3.8,1.3,1.3-.9.1-3.4,2.1-4.7s2.1-3.5,0-4c-2.1-.5-2.8,1.3-4.1-.6-1.3-1.9-3-.7-7.1.7-4.1,1.4-7.4-1.3-10.3-2.2-2.8-.9-1.5-3.1-5.4-2.8-3.9.2-4.7-.7-5.9-2-1.2-1.3-2.6-1.4-5.4-2s-3.3-3.8-4-2.6c-.7,1.2,1.7,3,3.9,4,2.2,1.1,1.4.6,1.5,4.5.1,3.9-.7,3.2-5,2.8-4.3-.4-5.8,1.9-11.1,2.8-5.3.9-6.7.5-7.3,2.4s.6,4.5-2.1,4.3c-2.7-.2-.9,5.3-3.4,6.2-2.5.9-3,3.2-1.5,4.1,1.4.8,2,3.1,2,4.5s1.1,3-1.9,3.9c-1.8.6-3.4,0-4.8-.6v107.4h86.1Z"/><path class="cls-2" d="M204.2,128.9c-.9-.4-1.8-.9-2.6-1-1.9-.4-2.8.4-3.8,1.5-.9,1.2-2.6.9-2.5-.4,0-1.3-1-4.4-.2-4.3.8.1-.7-5.2-5.6-5.7-4.8-.5-4.8-2.4-8.2-2.7-3.3-.4-4.1,5.8-6.7,5.8s-2.6.9-3.5,5.8c-.9,4.8-.1,3-3.9,3.1-3.8.1-2.2,2.8-2.7,4.8-.5,2,2.6,3.8,0,5.2-2.6,1.4-6-.1-8.9,0-2.8.1,1.1,5.4.5,6.6-.6,1.2.7,3.4,0,4.8-.7,1.4-1.9,1.7-4.4-.7-2.5-2.4-2.2-5.6-2.5-7.4-.2-1.9-3.4.6-6.4,2.1-3,1.5-1.9,5-3.9,6-2,1.1,0,4.4,2,4.5,2,.1-1.7,10.1-4.3,8.6-2.7-1.6-1.3.5-6.1,4.7-4.9,4.3-9,5.7-14.8,6-5.8.3-5.7,4.3-9,3.8-3.3-.5-6.8,4.1-13.2,3.9-6.5-.2-7.1-.8-11.4,4.3-4.3,5-10.1,5.5-12.8,7.6-2.7,2,.9,5.5-1.9,6.5-2.8.9-3.2-4.1-4.6-3.9s-3.3,4-3.6,6.5c-.3,2.5,2.8,7.7-.8,11.4s.2,5.5,0,6.1c0,0,5,6.9,5.1,9.4.1,2.5,3.2,5.8,2,7.9-1.2,2.1,0,0-2.4-1.9-2.4-1.9-.6.7-1.8,3.9-1.2,3.2-1.9-.1-4,.2-2.1.4,5.1,7.3,6,13.1.9,5.8,4.5,3.4,5.3,6.5.8,3.1,0,5.4,2.5,8.3,2.5,2.8,2,4.4,1.5,13.1-.5,8.8,5.4,14.1,5.9,16.8.5,2.7,4.6,7,1.1,9.3-3.5,2.4-2,6-2.2,8.8-.2,2.7-.7,1.5-4.6,2.2-3.9.7-1.2,8.4,2.7,9.8,3.9,1.4,3,.6,9,4,6,3.4,15.3,1.4,18.7-.8,3.4-2.2,5.1-3.2,9.2-1.9,4.1,1.3,1.7-5.8,5.4-6.4s10.4-2.1,18.4.6c8,2.7,5.9-1.4,14.7-2,8.8-.6,3.9-10.6,10.4-10.8,6.5-.1,7.4-3.7,10.4-6.4,2.9-2.7,9.1-1.2,15-1.3,5.9-.1,9.2-3.5,13.8-5.4.9-.4,2.1-.6,3.5-.9v-170Z"/><path class="cls-4" d="M322.6,235.3v33.7h73.3l2.8-5,7.8,2.8,4.4,1.3,5.1.6v5.4h4.4v-2.5h2.9l1.5-5,14,.2c0,0,.1-.1.2-.2,2-1.1.5-6.4-1.8-11.4-2.2-5-3.5-13.8-2.7-17.6.8-3.8-4.4-6-5.4-9.8-1.1-3.8.6-1.9-5.2-6.9-5.8-5-11.6-8.9-12.4-14.7-.8-5.8-7.3-3.2-8.3-7.6-.9-4.4-10.6-15-9.9-17.5.7-2.5.2-3.3-4.5-4.2s-5.8-2.5-6-5.1c-.2-2.6-4.8-2.6-6.9-3.4-2-.8-7.1-2-4.8-5.6,2.2-3.5-1.7-1.5-2.7-6.1-1.1-4.6,2.2-2.4,0-6.3-2.2-3.9-.1-4.5-4.6-7-4.5-2.5-1.9-10.9-1.4-14.9.5-4-5.8-4.3-7.8-7.3-2-3.1-3.4,1.1-6.6.8-3.2-.2-3.8-9.3-3.4-13.4.4-4-3.8-4-2.7-6.9,1.1-2.8-1.5-4.7-3.1-7.4-1.5-2.7-.9-4.5-1.9-7.2-.9-2.7-4.8,3.3-5.9,7.3-1,4-.7,3.7-2.3,5.6-1.5,1.9,2.6,3.9,2.2,4.3-.4.4-1.5-.1-3,1.8-1.4,1.9.3,3.9-1.6,6.1-1.9,2.2,1.5,4.3,1.4,7.9-.1,3.7,1.2,6.1-1.5,9.5-2.7,3.3.8,10.5-1.2,11.6-2,1.1-3,5.4-5.6,8.9-2.6,3.4-12.5,3-15.3-1.5-2.7-4.5-7.3-3.8-9.9-4.7v91.5h28.3Z"/><path class="cls-2" d="M320.5,325.1h.1v-87.9h-114.4v62.5c6.3-1,17-.9,20.3-1.3,4-.5,8,1.8,11.6,4.1,3.5,2.4,5.7,1.5,11,1.9,5.3.4,10.6,6.6,9.3,10.6-1.3,4,3.7,5.2,5.9,8.5,2.2,3.3,1.9,9.2,5.8,9.7,3.9.5,3.4-2.1,5.8-7.9,2.4-5.8,3.3-1.9,6.1-3.4,2.8-1.5,1.4-2.2,3.5-5.2,2.1-3,5,.8,5.2,2.4.2,1.5-.2,3-3,5.7-2.7,2.7-.7,3.3-1.3,7-.6,3.7-1.3,4.7-5,5.4-3.7.7-3.1,4.1-1.8,4.4,1.3.2,2.1-3,4.5-3.2,2.4-.2,3.3-.4,5-2.7,1.7-2.4-.1-5.7,2.2-6.5,2.4-.8,3.3-2.1,3.4,2.1.1,4.3,3.2,3.9.7,6.1-2.5,2.2-2.6,5.9-.7,6,1.9.1,6.5,2.8,9.3,4.7,2.8,1.9,5.6,9.5,3.1,11.5-2.5,2,1.3,9.3,5.8,11.8,3.3,1.8,4.8,3.5,7.4,3.9v-50.3h-.1Z"/><path class="cls-2" d="M389,359.4h-2.9c0,0-1.9-6.6-1.9-6.6l-23.1-4.4-5.6,3-8.7-10.5h-3.2v-7l-5.4-2.9-2.2,1.3-4.4-5.4h-9v50.3c.9.1,2,.1,3.4,0,5.3-.8,7.3,2.5,12.2,4.3s6.3,3.2,7.9,2.8c1.7-.4,3.5-2.8,6.6-4.6,3.1-1.8,1.1-3.7,2.5-6,1.4-2.4,6.4-1.4,4.7-.1-1.7,1.3-2.4,4.6-.4,3.9,2-.7,6.5.1,5,1.5-1.5,1.4,2.2,7.7,4.6,4.3,2.4-3.4,6.3-1.2,9.7-3.3,3.4-2.1,4.7-6.6,10.2-6.6s8.5-1.2,10.9-2l-13.8-7.7,2.8-4.1Z"/><path class="cls-2" d="M438.9,268.5l-14-.2-1.5,5h-2.9v2.5h-4.4v-5.4l-5.1-.6-4.4-1.3-7.8-2.8-2.8,5h-73.3v54.2h9l4.4,5.4,2.2-1.3,5.4,2.9v6.9h3.2c0,.1,8.7,10.7,8.7,10.7l5.6-3,23.1,4.4,1.9,6.5h2.9c0,0-2.8,4.2-2.8,4.2l13.8,7.7s0,0,0,0c2.4-.8,5.1-3.9,4.7-7.6-.4-3.7,1.8-11.1,4.6-14.7,2.8-3.5,3.5-8.9,3-12.8-.6-3.9,5.2-8.4,5-12.1-.2-3.7-.6-3.8,2-4.1,2.6-.4,2.6-4.8,5-7.9,2.4-3.1,4.7-6.1,5.9-11s3.9-3.2,4.1-6.1c.2-3,.2-10.9,3.2-15.3,2.8-4.2,0-8,1.5-9.3Z"/></g><rect class="cls-1" x="415.1" y="245.8" width="15" height="15" rx="7.5" ry="7.5"/><rect class="cls-1" x="392.4" y="324.9" width="15" height="15" rx="7.5" ry="7.5"/><rect class="cls-1" x="364.7" y="402" width="15" height="15" rx="7.5" ry="7.5"/><rect class="cls-1" x="302.8" y="332.4" width="15" height="15" rx="7.5" ry="7.5"/><rect class="cls-1" x="218.2" y="108.9" width="15" height="15" rx="7.5" ry="7.5"/><rect class="cls-1" x="82.6" y="298.7" width="15" height="15" rx="7.5" ry="7.5"/><rect class="cls-1" x="359.7" y="361.8" width="15" height="15" rx="7.5" ry="7.5"/></g></g></svg>