<svg width="3463" height="2826" xmlns="http://www.w3.org/2000/svg" xmlns:xlink="http://www.w3.org/1999/xlink" xml:space="preserve" overflow="hidden"><g transform="translate(-473 -41)"><path d="M476.5 1093.17C476.5 993.389 557.389 912.5 657.171 912.5L1379.83 912.5C1479.61 912.5 1560.5 993.389 1560.5 1093.17L1560.5 2653.83C1560.5 2753.61 1479.61 2834.5 1379.83 2834.5L657.171 2834.5C557.389 2834.5 476.5 2753.61 476.5 2653.83Z" stroke="#00376E" stroke-width="6.875" stroke-miterlimit="8" fill="#F2F2F2" fill-rule="evenodd"/><path d="M1660.5 1097.34C1660.5 997.463 1741.46 916.5 1841.34 916.5L2564.66 916.5C2664.54 916.5 2745.5 997.463 2745.5 1097.34L2745.5 2657.66C2745.5 2757.54 2664.54 2838.5 2564.66 2838.5L1841.34 2838.5C1741.46 2838.5 1660.5 2757.54 1660.5 2657.66Z" stroke="#00376E" stroke-width="6.875" stroke-miterlimit="8" fill="#F2F2F2" fill-rule="evenodd"/><path d="M1719 1520.84C1719 1457.97 1769.97 1407 1832.84 1407L2575.17 1407C2638.03 1407 2689 1457.97 2689 1520.84L2689 1976.16C2689 2039.03 2638.03 2090 2575.17 2090L1832.84 2090C1769.97 2090 1719 2039.03 1719 1976.16Z" fill="#99BEE2" fill-rule="evenodd" fill-opacity="0.501961"/><text font-family="Noto Sans Light,Noto Sans Light_MSFontService,sans-serif" font-weight="300" font-size="83" transform="matrix(1 0 0 1 2055.15 1579)">Premier</text><text font-family="Noto Sans Light,Noto Sans Light_MSFontService,sans-serif" font-weight="300" font-size="83" transform="matrix(1 0 0 1 2031.93 1777)">Ministers</text><text font-family="Noto Sans Light,Noto Sans Light_MSFontService,sans-serif" font-weight="300" font-size="83" transform="matrix(1 0 0 1 2060.58 1975)">Cabinet</text><path d="M0 0 0.588615 126.811" stroke="#00376E" stroke-width="20.625" stroke-miterlimit="8" fill="none" fill-rule="evenodd" transform="matrix(-1 0 0 1 2205.09 2090.5)"/><path d="M2848.5 1097.17C2848.5 997.388 2929.39 916.5 3029.17 916.5L3751.83 916.5C3851.61 916.5 3932.5 997.388 3932.5 1097.17L3932.5 2656.83C3932.5 2756.61 3851.61 2837.5 3751.83 2837.5L3029.17 2837.5C2929.39 2837.5 2848.5 2756.61 2848.5 2656.83Z" stroke="#00376E" stroke-width="6.875" stroke-miterlimit="8" fill="#F2F2F2" fill-rule="evenodd"/><path d="M1336.5 150.502C1336.5 91.9587 1383.96 44.4998 1442.5 44.4998L2963.5 44.4998C3022.04 44.4998 3069.5 91.9587 3069.5 150.502L3069.5 574.498C3069.5 633.041 3022.04 680.5 2963.5 680.5L1442.5 680.5C1383.96 680.5 1336.5 633.041 1336.5 574.498Z" stroke="#00376E" stroke-width="6.875" stroke-miterlimit="8" fill="#F2F2F2" fill-rule="evenodd"/><text font-family="Noto Sans Light,Noto Sans Light_MSFontService,sans-serif" font-weight="300" font-size="83" transform="matrix(1 0 0 1 1944.97 440)">The </text><text font-family="Noto Sans Light,Noto Sans Light_MSFontService,sans-serif" font-weight="300" font-size="83" transform="matrix(1 0 0 1 2104.24 440)">Governor </text><text font-family="Noto Sans Light,Noto Sans Light_MSFontService,sans-serif" font-weight="300" font-size="83" transform="matrix(1 0 0 1 1676.54 539)">(Sovereign’s Representative)</text><path d="M1718 1079.43C1718 1030.59 1757.59 991 1806.43 991L2600.57 991C2649.41 991 2689 1030.59 2689 1079.43L2689 1135.57C2689 1184.41 2649.41 1224 2600.57 1224L1806.43 1224C1757.59 1224 1718 1184.41 1718 1135.57Z" fill="#99BEE2" fill-rule="evenodd" fill-opacity="0.501961"/><text font-family="Noto Sans Light,Noto Sans Light_MSFontService,sans-serif" font-weight="300" font-size="73" transform="matrix(1 0 0 1 1913.75 1132)">Executive Council</text><path d="M1718 2332.46C1718 2268.14 1770.14 2216 1834.46 2216L2572.54 2216C2636.86 2216 2689 2268.14 2689 2332.46L2689 2332.54C2689 2396.86 2636.86 2449 2572.54 2449L1834.46 2449C1770.14 2449 1718 2396.86 1718 2332.54Z" fill="#99BEE2" fill-rule="evenodd" fill-opacity="0.501961"/><text font-family="Noto Sans Light,Noto Sans Light_MSFontService,sans-serif" font-weight="300" font-size="73" transform="matrix(1 0 0 1 1990.38 2358)">Public sector</text><text font-family="Noto Sans Light,Noto Sans Light_MSFontService,sans-serif" font-weight="300" font-size="83" transform="matrix(1 0 0 1 3166.37 1680)">Queensland </text><text font-family="Noto Sans Light,Noto Sans Light_MSFontService,sans-serif" font-weight="300" font-size="83" transform="matrix(1 0 0 1 3268.65 1779)">Courts </text><text font-family="Noto Sans Light,Noto Sans Light_MSFontService,sans-serif" font-weight="300" font-size="83" transform="matrix(1 0 0 1 824.07 1680)">Legislative </text><text font-family="Noto Sans Light,Noto Sans Light_MSFontService,sans-serif" font-weight="300" font-size="83" transform="matrix(1 0 0 1 841.831 1779)">Assembly</text><path d="M2212.81 680.5 2212.81 864.61 2192.19 864.61 2192.19 680.5ZM2233.44 854.298 2202.5 916.173 2171.56 854.298Z" fill="#00376E"/><path d="M2214.02 1276.02 2214.34 1356.09 2193.72 1356.17 2193.4 1276.1ZM2172.81 1286.5 2203.5 1224.5 2234.69 1286.25ZM2234.93 1345.7 2204.24 1407.7 2173.05 1345.95Z" fill="#00376E"/><path d="M2849 2683C2849 2581.93 2930.93 2500 3032 2500L3751 2500C3852.07 2500 3934 2581.93 3934 2683L3934 2683C3934 2784.07 3852.07 2866 3751 2866L3032 2866C2930.93 2866 2849 2784.07 2849 2683Z" fill="#00376E" fill-rule="evenodd"/><text fill="#FFFFFF" font-family="Noto Sans,Noto Sans_MSFontService,sans-serif" font-weight="700" font-size="92" transform="matrix(1 0 0 1 3192.51 2637)">Judiciary</text><text fill="#FFFFFF" font-family="Noto Sans Light,Noto Sans Light_MSFontService,sans-serif" font-weight="300" font-size="64" transform="matrix(1 0 0 1 3125.47 2721)">Power to interpret </text><text fill="#FFFFFF" font-family="Noto Sans Light,Noto Sans Light_MSFontService,sans-serif" font-weight="300" font-size="64" transform="matrix(1 0 0 1 3178.18 2798)">and apply laws</text><path d="M477 2682C477 2580.93 558.932 2499 660 2499L1379 2499C1480.07 2499 1562 2580.93 1562 2682L1562 2682C1562 2783.07 1480.07 2865 1379 2865L660 2865C558.932 2865 477 2783.07 477 2682Z" fill="#00376E" fill-rule="evenodd"/><text fill="#FFFFFF" font-family="Noto Sans,Noto Sans_MSFontService,sans-serif" font-weight="700" font-size="92" transform="matrix(1 0 0 1 766.258 2675)">Parliament</text><text fill="#FFFFFF" font-family="Noto Sans Light,Noto Sans Light_MSFontService,sans-serif" font-weight="300" font-size="64" transform="matrix(1 0 0 1 730.44 2759)">Power to make laws</text><path d="M1661 2681.5C1661 2579.6 1743.6 2497 1845.5 2497L2561.5 2497C2663.4 2497 2746 2579.6 2746 2681.5L2746 2681.5C2746 2783.4 2663.4 2866 2561.5 2866L1845.5 2866C1743.6 2866 1661 2783.4 1661 2681.5Z" fill="#00376E" fill-rule="evenodd"/><text fill="#FFFFFF" font-family="Noto Sans,Noto Sans_MSFontService,sans-serif" font-weight="700" font-size="92" transform="matrix(1 0 0 1 1982.97 2674)">Executive</text><text fill="#FFFFFF" font-family="Noto Sans Light,Noto Sans Light_MSFontService,sans-serif" font-weight="300" font-size="64" transform="matrix(1 0 0 1 1836.6 2758)">Power to implement laws</text><path d="M1336 158.001C1336 95.0399 1387.04 44 1450 44L2955 44C3017.96 44 3069 95.0399 3069 158.001L3069 158.001C3069 220.962 3017.96 272.002 2955 272.002L1450 272C1387.04 272 1336 220.96 1336 157.999Z" fill="#002E5C" fill-rule="evenodd"/><text fill="#FFFFFF" font-family="Noto Sans,Noto Sans_MSFontService,sans-serif" font-weight="700" font-size="92" transform="matrix(1 0 0 1 1958.99 189)">The Crown</text></g></svg>