<svg width="4526" height="2442" xmlns="http://www.w3.org/2000/svg" xmlns:xlink="http://www.w3.org/1999/xlink" xml:space="preserve" overflow="hidden"><g transform="translate(46 58)"><path d="M2207.89 648.519 2206.33 773.486 2185.71 773.229 2187.27 648.262ZM2227.09 763.432 2195.38 824.916 2165.22 762.66Z" fill="#00B9F4"/><path d="M2210.81 1486.5 2210.81 1603.67 2190.19 1603.67 2190.19 1486.5ZM2231.44 1593.36 2200.5 1655.23 2169.56 1593.36Z" fill="#00B9F4"/><path d="M0 0 2384 0 1907.2 258 476.8 258Z" stroke="#005EB8" stroke-width="6.875" stroke-miterlimit="8" fill="#F3F9FF" fill-rule="evenodd" transform="matrix(1 0 0 -1 1001.5 648.5)"/><path d="M1499 372 2196.3-12 2901 372Z" fill="#002E5C" fill-rule="evenodd"/><text fill="#FFFFFF" font-family="Arial,Arial_MSFontService,sans-serif" font-weight="700" font-size="73" transform="matrix(1 0 0 1 1896.74 303)">Ethics principles</text><rect x="619.5" y="1237.5" width="3162" height="249" stroke="#005EB8" stroke-width="6.875" stroke-miterlimit="8" fill="#F3F9FF"/><text font-family="Noto Sans Light,Noto Sans Light_MSFontService,sans-serif" font-weight="300" font-size="60" transform="matrix(1 0 0 1 1248.39 1381)">Provide the basis for codes of conduct in the Queensland public sector</text><path d="M615 1223 1138.7 931 3261.3 931 3785 1223Z" fill="#002E5C" fill-rule="evenodd"/><text fill="#FFFFFF" font-family="Noto Sans,Noto Sans_MSFontService,sans-serif" font-weight="700" font-size="73" transform="matrix(1 0 0 1 1955.31 1156)">Ethics values</text><rect x="271.5" y="2081.5" width="3892" height="299" stroke="#005EB8" stroke-width="6.875" stroke-miterlimit="8" fill="#F3F9FF"/><text font-family="Noto Sans Light,Noto Sans Light_MSFontService,sans-serif" font-weight="300" font-size="60" transform="matrix(1 0 0 1 1012.61 2251)">Provide a code of professional </text><text font-family="Noto Sans Light,Noto Sans Light_MSFontService,sans-serif" font-weight="300" font-size="60" transform="matrix(1 0 0 1 1841.62 2251)">behavio</text><text font-family="Noto Sans Light,Noto Sans Light_MSFontService,sans-serif" font-weight="300" font-size="60" transform="matrix(1 0 0 1 2054.17 2251)">u</text><text font-family="Noto Sans Light,Noto Sans Light_MSFontService,sans-serif" font-weight="300" font-size="60" transform="matrix(1 0 0 1 2089.69 2251)">rs</text><text font-family="Noto Sans Light,Noto Sans Light_MSFontService,sans-serif" font-weight="300" font-size="60" transform="matrix(1 0 0 1 2156.72 2251)">consistent with the ethics principles and values</text><path d="M271.5 2060.5 661.275 1768.5 3773.73 1768.5 4163.5 2060.5Z" stroke="#2C8475" stroke-width="1.14583" stroke-miterlimit="8" fill="#002E5C" fill-rule="evenodd"/><text fill="#FFFFFF" font-family="Noto Sans,Noto Sans_MSFontService,sans-serif" font-weight="700" font-size="73" transform="matrix(1 0 0 1 1814.12 1993)">Standards of conduct</text><path d="M2109.5 934.5C2109.5 884.242 2150.24 843.5 2200.5 843.5 2250.76 843.5 2291.5 884.242 2291.5 934.5 2291.5 984.758 2250.76 1025.5 2200.5 1025.5 2150.24 1025.5 2109.5 984.758 2109.5 934.5Z" stroke="#005EB8" stroke-width="6.875" stroke-miterlimit="8" fill="#F0F6FB" fill-rule="evenodd"/><text fill="#005EB8" font-family="Noto Sans,Noto Sans_MSFontService,sans-serif" font-weight="700" font-size="73" transform="matrix(1 0 0 1 2179.09 959)">2</text><path d="M2103.5 1761.5C2103.5 1711.24 2146.93 1670.5 2200.5 1670.5 2254.07 1670.5 2297.5 1711.24 2297.5 1761.5 2297.5 1811.76 2254.07 1852.5 2200.5 1852.5 2146.93 1852.5 2103.5 1811.76 2103.5 1761.5Z" stroke="#005EB8" stroke-width="6.875" stroke-miterlimit="8" fill="#F0F6FB" fill-rule="evenodd"/><text fill="#005EB8" font-family="Noto Sans,Noto Sans_MSFontService,sans-serif" font-weight="700" font-size="73" transform="matrix(1 0 0 1 2179.09 1786)">3</text><path d="M2109.5 36.4999C2109.5-13.758 2150.24-54.5002 2200.5-54.5002 2250.76-54.5002 2291.5-13.758 2291.5 36.4999 2291.5 86.7579 2250.76 127.5 2200.5 127.5 2150.24 127.5 2109.5 86.7579 2109.5 36.4999Z" stroke="#005EB8" stroke-width="6.875" stroke-miterlimit="8" fill="#F0F6FB" fill-rule="evenodd"/><text fill="#005EB8" font-family="Noto Sans,Noto Sans_MSFontService,sans-serif" font-weight="700" font-size="73" transform="matrix(1 0 0 1 2179.09 61)">1</text><text font-family="Noto Sans Light,Noto Sans Light_MSFontService,sans-serif" font-weight="300" font-size="60" transform="matrix(1 0 0 1 1726.2 515)">Provide fundamental guidelines for</text><text fill="#282828" font-family="Noto Sans Light,Noto Sans Light_MSFontService,sans-serif" font-weight="300" font-size="60" transform="matrix(1 0 0 1 1844.49 586)">good public administration</text></g></svg>