<svg width="2940" height="2117" xmlns="http://www.w3.org/2000/svg" xmlns:xlink="http://www.w3.org/1999/xlink" xml:space="preserve" overflow="hidden"><g transform="translate(-785 -35)"><path d="M1889.5 565.5 2254.66 38.5 2255.34 38.5 2620.5 565.5Z" stroke="#ACDBD1" stroke-width="6.875" stroke-miterlimit="8" fill="#EAF6F4" fill-rule="evenodd" fill-opacity="0.501961"/><text fill="#FFFFFF" font-family="Arial,Arial_MSFontService,sans-serif" font-weight="400" font-size="101" transform="matrix(1 0 0 1 2120.26 384)">Policy</text><path d="M1524.5 1093.5 1890.35 565.5 2620.65 565.5 2986.5 1093.5Z" stroke="#ACDBD1" stroke-width="6.875" stroke-miterlimit="8" fill="#EAF6F4" fill-rule="evenodd" fill-opacity="0.34902"/><text fill="#FFFFFF" font-family="Arial,Arial_MSFontService,sans-serif" font-weight="400" font-size="101" transform="matrix(1 0 0 1 2024.94 860)">Standards</text><path d="M1158.5 1620.5 1523.66 1093.5 2987.34 1093.5 3352.5 1620.5Z" stroke="#ACDBD1" stroke-width="6.875" stroke-miterlimit="8" fill="#EAF6F4" fill-rule="evenodd" fill-opacity="0.34902"/><text fill="#FFFFFF" font-family="Arial,Arial_MSFontService,sans-serif" font-weight="400" font-size="101" transform="matrix(1 0 0 1 1996.95 1388)">Procedures</text><path d="M792.5 2148.5 1158.36 1620.5 3351.64 1620.5 3717.5 2148.5Z" stroke="#ACDBD1" stroke-width="6.875" stroke-miterlimit="8" fill="#EAF6F4" fill-rule="evenodd" fill-opacity="0.34902"/><text fill="#FFFFFF" font-family="Arial,Arial_MSFontService,sans-serif" font-weight="400" font-size="101" transform="matrix(1 0 0 1 2030.53 1915)">Guidelines</text></g></svg>