<svg width="2391" height="2025" xmlns="http://www.w3.org/2000/svg" xmlns:xlink="http://www.w3.org/1999/xlink" xml:space="preserve" overflow="hidden"><g transform="translate(-1049 -122)"><path d="M1649.5 1049.5 2797.05 1284.13" stroke="#158181" stroke-width="6.875" stroke-miterlimit="8" fill="none" fill-rule="evenodd"/><path d="M1932.5 687.5 2576.7 1597.5" stroke="#158181" stroke-width="6.875" stroke-miterlimit="8" fill="none" fill-rule="evenodd"/><path d="M0 0 224.211 1024.85" stroke="#158181" stroke-width="6.875" stroke-miterlimit="8" fill="none" fill-rule="evenodd" transform="matrix(-1 0 0 1 2360.71 617.5)"/><path d="M0 0 1006.76 537.537" stroke="#158181" stroke-width="6.875" stroke-miterlimit="8" fill="none" fill-rule="evenodd" transform="matrix(-1 0 0 1 2757.26 864.5)"/><path d="M1449.5 1112C1449.5 709.661 1790.66 383.5 2211.5 383.5 2632.34 383.5 2973.5 709.661 2973.5 1112 2973.5 1514.34 2632.34 1840.5 2211.5 1840.5 1790.66 1840.5 1449.5 1514.34 1449.5 1112Z" stroke="#158181" stroke-width="6.875" stroke-miterlimit="8" stroke-dasharray="6.875 6.875" fill="none" fill-rule="evenodd"/><path d="M2469.5 1804.5C2469.5 1665.88 2582.32 1553.5 2721.5 1553.5 2860.68 1553.5 2973.5 1665.88 2973.5 1804.5 2973.5 1943.12 2860.68 2055.5 2721.5 2055.5 2582.32 2055.5 2469.5 1943.12 2469.5 1804.5Z" stroke="#158181" stroke-width="6.875" stroke-miterlimit="8" fill="#E6F2F0" fill-rule="evenodd"/><path d="M1564.5 483.5C1564.5 344.876 1677.55 232.5 1817 232.5 1956.45 232.5 2069.5 344.876 2069.5 483.5 2069.5 622.123 1956.45 734.5 1817 734.5 1677.55 734.5 1564.5 622.123 1564.5 483.5Z" stroke="#158181" stroke-width="6.875" stroke-miterlimit="8" fill="#E6F2F0" fill-rule="evenodd"/><path d="M1830.5 1893C1830.5 1754.65 1943.55 1642.5 2083 1642.5 2222.45 1642.5 2335.5 1754.65 2335.5 1893 2335.5 2031.35 2222.45 2143.5 2083 2143.5 1943.55 2143.5 1830.5 2031.35 1830.5 1893Z" stroke="#158181" stroke-width="6.875" stroke-miterlimit="8" fill="#E6F2F0" fill-rule="evenodd"/><path d="M2796.5 1284.5C2796.5 1145.88 2909.55 1033.5 3049 1033.5 3188.45 1033.5 3301.5 1145.88 3301.5 1284.5 3301.5 1423.12 3188.45 1535.5 3049 1535.5 2909.55 1535.5 2796.5 1423.12 2796.5 1284.5Z" stroke="#158181" stroke-width="6.875" stroke-miterlimit="8" fill="#E6F2F0" fill-rule="evenodd"/><path d="M2683.5 687.5C2683.5 548.877 2796.32 436.5 2935.5 436.5 3074.68 436.5 3187.5 548.877 3187.5 687.5 3187.5 826.123 3074.68 938.5 2935.5 938.5 2796.32 938.5 2683.5 826.123 2683.5 687.5Z" stroke="#158181" stroke-width="6.875" stroke-miterlimit="8" fill="#E6F2F0" fill-rule="evenodd"/><path d="M2155.5 376.5C2155.5 237.876 2268.55 125.5 2408 125.5 2547.45 125.5 2660.5 237.876 2660.5 376.5 2660.5 515.123 2547.45 627.5 2408 627.5 2268.55 627.5 2155.5 515.123 2155.5 376.5Z" stroke="#158181" stroke-width="6.875" stroke-miterlimit="8" fill="#E6F2F0" fill-rule="evenodd"/><path d="M1319.5 1579.5C1319.5 1440.88 1432.55 1328.5 1572 1328.5 1711.45 1328.5 1824.5 1440.88 1824.5 1579.5 1824.5 1718.12 1711.45 1830.5 1572 1830.5 1432.55 1830.5 1319.5 1718.12 1319.5 1579.5Z" stroke="#158181" stroke-width="6.875" stroke-miterlimit="8" fill="#E6F2F0" fill-rule="evenodd"/><path d="M1182.5 986.5C1182.5 847.877 1295.55 735.5 1435 735.5 1574.45 735.5 1687.5 847.877 1687.5 986.5 1687.5 1125.12 1574.45 1237.5 1435 1237.5 1295.55 1237.5 1182.5 1125.12 1182.5 986.5Z" stroke="#158181" stroke-width="6.875" stroke-miterlimit="8" fill="#E6F2F0" fill-rule="evenodd"/><text fill="#158181" font-family="Open Sans,Open Sans_MSFontService,sans-serif" font-weight="400" font-size="55" transform="matrix(1 0 0 1 1670.04 372)">Data </text><text fill="#158181" font-family="Open Sans,Open Sans_MSFontService,sans-serif" font-weight="400" font-size="55" transform="matrix(1 0 0 1 1670.04 438)">analysts </text><path d="M1890.5 1126.5C1890.5 942.037 2045.41 792.5 2236.5 792.5 2427.59 792.5 2582.5 942.037 2582.5 1126.5 2582.5 1310.96 2427.59 1460.5 2236.5 1460.5 2045.41 1460.5 1890.5 1310.96 1890.5 1126.5Z" stroke="#FFFFFF" stroke-width="6.875" stroke-miterlimit="8" fill="#158181" fill-rule="evenodd"/><text fill="#FFFFFF" font-family="Open Sans,Open Sans_MSFontService,sans-serif" font-weight="400" font-size="50" transform="matrix(1 0 0 1 2032.31 1113)">Program, project, </text><text fill="#FFFFFF" font-family="Open Sans,Open Sans_MSFontService,sans-serif" font-weight="400" font-size="50" transform="matrix(1 0 0 1 2104.77 1174)">or initiative</text><text fill="#158181" font-family="Open Sans,Open Sans_MSFontService,sans-serif" font-weight="400" font-size="55" transform="matrix(1 0 0 1 1250.28 963)">Senior </text><text fill="#158181" font-family="Open Sans,Open Sans_MSFontService,sans-serif" font-weight="400" font-size="55" transform="matrix(1 0 0 1 1238.25 1029)">leaders</text><text fill="#158181" font-family="Open Sans,Open Sans_MSFontService,sans-serif" font-weight="400" font-size="55" transform="matrix(1 0 0 1 2304.36 276)">Program </text><text fill="#158181" font-family="Open Sans,Open Sans_MSFontService,sans-serif" font-weight="400" font-size="55" transform="matrix(1 0 0 1 2286.94 342)">managers</text><text fill="#158181" font-family="Open Sans,Open Sans_MSFontService,sans-serif" font-weight="400" font-size="55" transform="matrix(1 0 0 1 2953.7 599)">Policy</text><text fill="#158181" font-family="Open Sans,Open Sans_MSFontService,sans-serif" font-weight="400" font-size="55" transform="matrix(1 0 0 1 2910.73 665)">officers</text><text fill="#158181" font-family="Open Sans,Open Sans_MSFontService,sans-serif" font-weight="400" font-size="55" transform="matrix(1 0 0 1 3050.98 1258)">Project </text><text fill="#158181" font-family="Open Sans,Open Sans_MSFontService,sans-serif" font-weight="400" font-size="55" transform="matrix(1 0 0 1 3044.7 1324)">officers</text><text fill="#158181" font-family="Open Sans,Open Sans_MSFontService,sans-serif" font-weight="400" font-size="55" transform="matrix(1 0 0 1 1383.15 1646)">Administration </text><text fill="#158181" font-family="Open Sans,Open Sans_MSFontService,sans-serif" font-weight="400" font-size="55" transform="matrix(1 0 0 1 1477.13 1712)">officers</text><text fill="#158181" font-family="Open Sans,Open Sans_MSFontService,sans-serif" font-weight="400" font-size="55" transform="matrix(1 0 0 1 1914.12 1956)">Engagement </text><text fill="#158181" font-family="Open Sans,Open Sans_MSFontService,sans-serif" font-weight="400" font-size="55" transform="matrix(1 0 0 1 1979.43 2022)">officers</text><text fill="#158181" font-family="Open Sans,Open Sans_MSFontService,sans-serif" font-weight="400" font-size="55" transform="matrix(1 0 0 1 2505.97 1855)">Communications </text><text fill="#158181" font-family="Open Sans,Open Sans_MSFontService,sans-serif" font-weight="400" font-size="55" transform="matrix(1 0 0 1 2644.34 1921)">teams </text><path d="M1493.5 1024.5C1493.5 981.422 1528.42 946.5 1571.5 946.5 1614.58 946.5 1649.5 981.422 1649.5 1024.5 1649.5 1067.58 1614.58 1102.5 1571.5 1102.5 1528.42 1102.5 1493.5 1067.58 1493.5 1024.5Z" stroke="#F15B67" stroke-width="6.875" stroke-miterlimit="8" fill="#E6F2F0" fill-rule="evenodd"/><path d="M1793.5 591.5C1793.5 548.422 1828.42 513.5 1871.5 513.5 1914.58 513.5 1949.5 548.422 1949.5 591.5 1949.5 634.578 1914.58 669.5 1871.5 669.5 1828.42 669.5 1793.5 634.578 1793.5 591.5Z" stroke="#F15B67" stroke-width="6.875" stroke-miterlimit="8" fill="#E6F2F0" fill-rule="evenodd"/><path d="M2306.5 516.5C2306.5 473.422 2341.2 438.5 2384 438.5 2426.8 438.5 2461.5 473.422 2461.5 516.5 2461.5 559.578 2426.8 594.5 2384 594.5 2341.2 594.5 2306.5 559.578 2306.5 516.5Z" stroke="#F15B67" stroke-width="6.875" stroke-miterlimit="8" fill="#E6F2F0" fill-rule="evenodd"/><path d="M2766.5 799.5C2766.5 756.422 2801.42 721.5 2844.5 721.5 2887.58 721.5 2922.5 756.422 2922.5 799.5 2922.5 842.578 2887.58 877.5 2844.5 877.5 2801.42 877.5 2766.5 842.578 2766.5 799.5Z" stroke="#F15B67" stroke-width="6.875" stroke-miterlimit="8" fill="#E6F2F0" fill-rule="evenodd"/><path d="M2829.5 1282.5C2829.5 1239.42 2864.42 1204.5 2907.5 1204.5 2950.58 1204.5 2985.5 1239.42 2985.5 1282.5 2985.5 1325.58 2950.58 1360.5 2907.5 1360.5 2864.42 1360.5 2829.5 1325.58 2829.5 1282.5Z" stroke="#F15B67" stroke-width="6.875" stroke-miterlimit="8" fill="#E6F2F0" fill-rule="evenodd"/><path d="M2582.5 1701.5C2582.5 1658.42 2617.42 1623.5 2660.5 1623.5 2703.58 1623.5 2738.5 1658.42 2738.5 1701.5 2738.5 1744.58 2703.58 1779.5 2660.5 1779.5 2617.42 1779.5 2582.5 1744.58 2582.5 1701.5Z" stroke="#F15B67" stroke-width="6.875" stroke-miterlimit="8" fill="#E6F2F0" fill-rule="evenodd"/><path d="M2012.5 1780.5C2012.5 1737.42 2047.42 1702.5 2090.5 1702.5 2133.58 1702.5 2168.5 1737.42 2168.5 1780.5 2168.5 1823.58 2133.58 1858.5 2090.5 1858.5 2047.42 1858.5 2012.5 1823.58 2012.5 1780.5Z" stroke="#F15B67" stroke-width="6.875" stroke-miterlimit="8" fill="#E6F2F0" fill-rule="evenodd"/><path d="M1554.5 1475.5C1554.5 1432.42 1589.42 1397.5 1632.5 1397.5 1675.58 1397.5 1710.5 1432.42 1710.5 1475.5 1710.5 1518.58 1675.58 1553.5 1632.5 1553.5 1589.42 1553.5 1554.5 1518.58 1554.5 1475.5Z" stroke="#F15B67" stroke-width="6.875" stroke-miterlimit="8" fill="#E6F2F0" fill-rule="evenodd"/></g></svg>