<svg width="4684" height="2529" xmlns="http://www.w3.org/2000/svg" xmlns:xlink="http://www.w3.org/1999/xlink" xml:space="preserve" overflow="hidden"><defs><linearGradient x1="4003.5" y1="2876.5" x2="278.5" y2="2876.5" gradientUnits="userSpaceOnUse" spreadMethod="reflect" id="fill0"><stop offset="0" stop-color="#7DB9AE"/><stop offset="0.03883" stop-color="#7DB9AE"/><stop offset="0.16" stop-color="#7DB9AE"/><stop offset="0.59" stop-color="#C8E2DE" stop-opacity="0.517647"/><stop offset="1" stop-color="#FFFFFF" stop-opacity="0.929412"/></linearGradient><linearGradient x1="1653" y1="1847.5" x2="1653" y2="2196.5" gradientUnits="userSpaceOnUse" spreadMethod="reflect" id="fill1"><stop offset="0" stop-color="#99C2B8"/><stop offset="0.5" stop-color="#C2D8D3"/><stop offset="1" stop-color="#E2EBE9"/></linearGradient><linearGradient x1="2631.5" y1="1845.5" x2="2631.5" y2="2194.5" gradientUnits="userSpaceOnUse" spreadMethod="reflect" id="fill2"><stop offset="0" stop-color="#99C2B8"/><stop offset="0.5" stop-color="#C2D8D3"/><stop offset="1" stop-color="#E2EBE9"/></linearGradient><linearGradient x1="3614" y1="1851.5" x2="3614" y2="2200.5" gradientUnits="userSpaceOnUse" spreadMethod="reflect" id="fill3"><stop offset="0" stop-color="#99C2B8"/><stop offset="0.5" stop-color="#C2D8D3"/><stop offset="1" stop-color="#E2EBE9"/></linearGradient><linearGradient x1="3614" y1="1036.5" x2="3614" y2="1384.5" gradientUnits="userSpaceOnUse" spreadMethod="reflect" id="fill4"><stop offset="0" stop-color="#1E7465"/><stop offset="0.43" stop-color="#1E7465"/><stop offset="1" stop-color="#73ADA2"/></linearGradient></defs><g transform="translate(200 -464)"><path d="M1217.5 1438.66C1217.5 1358.49 1282.49 1293.5 1362.66 1293.5L1943.3 1293.5C2023.48 1293.5 2088.47 1358.49 2088.47 1438.66L2088.47 2512.34C2088.47 2592.51 2023.48 2657.5 1943.3 2657.5L1362.66 2657.5C1282.49 2657.5 1217.5 2592.51 1217.5 2512.34Z" stroke="#2C8475" stroke-width="6.875" stroke-miterlimit="8" fill="#007A6D" fill-rule="evenodd" fill-opacity="0.0588235"/><path d="M3182.5 612.482C3182.5 532.411 3247.41 467.5 3327.48 467.5L3907.4 467.5C3987.47 467.5 4052.38 532.411 4052.38 612.482L4052.38 2512.52C4052.38 2592.59 3987.47 2657.5 3907.4 2657.5L3327.48 2657.5C3247.41 2657.5 3182.5 2592.59 3182.5 2512.52Z" stroke="#2C8475" stroke-width="6.875" stroke-miterlimit="8" fill="#2C8475" fill-rule="evenodd" fill-opacity="0.0588235"/><path d="M2200.5 986.502C2200.5 906.42 2265.42 841.5 2345.5 841.5L2925.5 841.5C3005.58 841.5 3070.5 906.42 3070.5 986.502L3070.5 2512.5C3070.5 2592.58 3005.58 2657.5 2925.5 2657.5L2345.5 2657.5C2265.42 2657.5 2200.5 2592.58 2200.5 2512.5Z" stroke="#2C8475" stroke-width="6.875" stroke-miterlimit="8" fill="#2C8475" fill-rule="evenodd" fill-opacity="0.0588235"/><path d="M233.5 1863.84C233.5 1783.57 298.569 1718.5 378.837 1718.5L960.163 1718.5C1040.43 1718.5 1105.5 1783.57 1105.5 1863.84L1105.5 2512.16C1105.5 2592.43 1040.43 2657.5 960.163 2657.5L378.837 2657.5C298.569 2657.5 233.5 2592.43 233.5 2512.16Z" stroke="#2C8475" stroke-width="6.875" stroke-miterlimit="8" fill="#2C8475" fill-rule="evenodd" fill-opacity="0.0588235"/><path d="M233 1820.5C233 1763.89 278.891 1718 335.5 1718L1000.5 1718C1057.11 1718 1103 1763.89 1103 1820.5L1103 1820.5C1103 1877.11 1057.11 1923 1000.5 1923L335.5 1923C278.891 1923 233 1877.11 233 1820.5Z" fill="#007A6D" fill-rule="evenodd"/><text fill="#FFFFFF" font-family="Open Sans,Open Sans_MSFontService,sans-serif" font-weight="700" font-size="73" transform="matrix(1 0 0 1 451.256 1846)">Networking</text><path d="M1217 1395.5C1217 1338.89 1262.89 1293 1319.5 1293L1985.5 1293C2042.11 1293 2088 1338.89 2088 1395.5L2088 1395.5C2088 1452.11 2042.11 1498 1985.5 1498L1319.5 1498C1262.89 1498 1217 1452.11 1217 1395.5Z" fill="#007A6D" fill-rule="evenodd"/><text fill="#FFFFFF" font-family="Open Sans,Open Sans_MSFontService,sans-serif" font-weight="700" font-size="73" transform="matrix(1 0 0 1 1422.99 1421)">Coordination</text><path d="M2200 943.501C2200 886.891 2245.89 841 2302.5 841L2967.5 841C3024.11 841 3070 886.891 3070 943.501L3070 943.501C3070 1000.11 3024.11 1046 2967.5 1046L2302.5 1046C2245.89 1046 2200 1000.11 2200 943.5Z" fill="#007A6D" fill-rule="evenodd"/><text fill="#FFFFFF" font-family="Open Sans,Open Sans_MSFontService,sans-serif" font-weight="700" font-size="73" transform="matrix(1 0 0 1 2409.32 968)">Cooperation  </text><path d="M3184 569.5C3184 512.891 3229.89 467 3286.5 467L3952.5 467C4009.11 467 4055 512.891 4055 569.5L4055 569.5C4055 626.109 4009.11 672 3952.5 672L3286.5 672C3229.89 672 3184 626.109 3184 569.5Z" fill="#007A6D" fill-rule="evenodd"/><text fill="#FFFFFF" font-family="Open Sans,Open Sans_MSFontService,sans-serif" font-weight="700" font-size="73" transform="matrix(1 0 0 1 3300.05 595)">Ful</text><text fill="#FFFFFF" font-family="Open Sans,Open Sans_MSFontService,sans-serif" font-weight="700" font-size="73" transform="matrix(1 0 0 1 3410.63 595)">l</text><text fill="#FFFFFF" font-family="Open Sans,Open Sans_MSFontService,sans-serif" font-weight="700" font-size="73" transform="matrix(1 0 0 1 3451.88 595)">collaboration </text><path d="M278.5 2819 3888.5 2819 3888.5 2761.5 4003.5 2876.5 3888.5 2991.5 3888.5 2934 278.5 2934Z" stroke="#2C8475" stroke-width="1.14583" stroke-miterlimit="8" fill="url(#fill0)" fill-rule="evenodd"/><text fill="#0D0D0D" font-family="Open Sans,Open Sans_MSFontService,sans-serif" font-weight="400" font-size="64" transform="matrix(1 0 0 1 1501.79 2898)">Increasing use of time, resources and trust</text><path d="M278.5 2313.67C278.5 2281.54 304.543 2255.5 336.668 2255.5L1000.33 2255.5C1032.46 2255.5 1058.5 2281.54 1058.5 2313.67L1058.5 2546.33C1058.5 2578.46 1032.46 2604.5 1000.33 2604.5L336.668 2604.5C304.543 2604.5 278.5 2578.46 278.5 2546.33Z" stroke="#2C8475" stroke-width="6.875" stroke-miterlimit="8" fill="#2C8475" fill-rule="evenodd" fill-opacity="0.0588235"/><text font-family="Open Sans,Open Sans_MSFontService,sans-serif" font-weight="400" font-size="64" transform="matrix(1 0 0 1 339.675 2451)">Information exchange </text><path d="M1263.5 2311.67C1263.5 2279.54 1289.54 2253.5 1321.67 2253.5L1984.33 2253.5C2016.46 2253.5 2042.5 2279.54 2042.5 2311.67L2042.5 2544.33C2042.5 2576.46 2016.46 2602.5 1984.33 2602.5L1321.67 2602.5C1289.54 2602.5 1263.5 2576.46 1263.5 2544.33Z" stroke="#2C8475" stroke-width="6.875" stroke-miterlimit="8" fill="#2C8475" fill-rule="evenodd" fill-opacity="0.0588235"/><text font-family="Open Sans,Open Sans_MSFontService,sans-serif" font-weight="400" font-size="64" transform="matrix(1 0 0 1 1324.14 2449)">Information exchange </text><path d="M2241.5 2311.67C2241.5 2279.54 2267.54 2253.5 2299.67 2253.5L2963.33 2253.5C2995.46 2253.5 3021.5 2279.54 3021.5 2311.67L3021.5 2544.33C3021.5 2576.46 2995.46 2602.5 2963.33 2602.5L2299.67 2602.5C2267.54 2602.5 2241.5 2576.46 2241.5 2544.33Z" stroke="#2C8475" stroke-width="6.875" stroke-miterlimit="8" fill="#2C8475" fill-rule="evenodd" fill-opacity="0.0588235"/><text font-family="Open Sans,Open Sans_MSFontService,sans-serif" font-weight="400" font-size="64" transform="matrix(1 0 0 1 2302.76 2449)">Information exchange </text><path d="M3230.5 2311.67C3230.5 2279.54 3256.54 2253.5 3288.67 2253.5L3951.33 2253.5C3983.46 2253.5 4009.5 2279.54 4009.5 2311.67L4009.5 2544.33C4009.5 2576.46 3983.46 2602.5 3951.33 2602.5L3288.67 2602.5C3256.54 2602.5 3230.5 2576.46 3230.5 2544.33Z" stroke="#2C8475" stroke-width="6.875" stroke-miterlimit="8" fill="#2C8475" fill-rule="evenodd" fill-opacity="0.0588235"/><text font-family="Open Sans,Open Sans_MSFontService,sans-serif" font-weight="400" font-size="64" transform="matrix(1 0 0 1 3291.15 2449)">Information exchange </text><path d="M1263.5 1905.67C1263.5 1873.54 1289.54 1847.5 1321.67 1847.5L1984.33 1847.5C2016.46 1847.5 2042.5 1873.54 2042.5 1905.67L2042.5 2138.33C2042.5 2170.46 2016.46 2196.5 1984.33 2196.5L1321.67 2196.5C1289.54 2196.5 1263.5 2170.46 1263.5 2138.33Z" stroke="#2C8475" stroke-width="6.875" stroke-miterlimit="8" fill="url(#fill1)" fill-rule="evenodd"/><text font-family="Open Sans,Open Sans_MSFontService,sans-serif" font-weight="400" font-size="64" transform="matrix(1 0 0 1 1353 2043)">Change in approach</text><path d="M2241.5 1903.67C2241.5 1871.54 2267.54 1845.5 2299.67 1845.5L2963.33 1845.5C2995.46 1845.5 3021.5 1871.54 3021.5 1903.67L3021.5 2136.33C3021.5 2168.46 2995.46 2194.5 2963.33 2194.5L2299.67 2194.5C2267.54 2194.5 2241.5 2168.46 2241.5 2136.33Z" stroke="#2C8475" stroke-width="6.875" stroke-miterlimit="8" fill="url(#fill2)" fill-rule="evenodd"/><text font-family="Open Sans,Open Sans_MSFontService,sans-serif" font-weight="400" font-size="64" transform="matrix(1 0 0 1 2331.62 2041)">Change in approach</text><path d="M3224.5 1909.67C3224.5 1877.54 3250.54 1851.5 3282.67 1851.5L3945.33 1851.5C3977.46 1851.5 4003.5 1877.54 4003.5 1909.67L4003.5 2142.33C4003.5 2174.46 3977.46 2200.5 3945.33 2200.5L3282.67 2200.5C3250.54 2200.5 3224.5 2174.46 3224.5 2142.33Z" stroke="#2C8475" stroke-width="6.875" stroke-miterlimit="8" fill="url(#fill3)" fill-rule="evenodd"/><text font-family="Open Sans,Open Sans_MSFontService,sans-serif" font-weight="400" font-size="64" transform="matrix(1 0 0 1 3313.79 2047)">Change in approach</text><path d="M2249.5 1487.67C2249.5 1455.54 2275.54 1429.5 2307.67 1429.5L2971.33 1429.5C3003.46 1429.5 3029.5 1455.54 3029.5 1487.67L3029.5 1720.33C3029.5 1752.46 3003.46 1778.5 2971.33 1778.5L2307.67 1778.5C2275.54 1778.5 2249.5 1752.46 2249.5 1720.33Z" stroke="#2C8475" stroke-width="6.875" stroke-miterlimit="8" fill="#A4CAC3" fill-rule="evenodd"/><text font-family="Open Sans,Open Sans_MSFontService,sans-serif" font-weight="400" font-size="64" transform="matrix(1 0 0 1 2379.14 1586)">Shared resources </text><text font-family="Open Sans,Open Sans_MSFontService,sans-serif" font-weight="400" font-size="64" transform="matrix(1 0 0 1 2504.71 1663)">and risks </text><path d="M3224.5 1094.5C3224.5 1062.47 3250.47 1036.5 3282.5 1036.5L3945.5 1036.5C3977.53 1036.5 4003.5 1062.47 4003.5 1094.5L4003.5 1326.5C4003.5 1358.53 3977.53 1384.5 3945.5 1384.5L3282.5 1384.5C3250.47 1384.5 3224.5 1358.53 3224.5 1326.5Z" stroke="#2C8475" stroke-width="6.875" stroke-miterlimit="8" fill="url(#fill4)" fill-rule="evenodd"/><text fill="#F2F2F2" font-family="Open Sans,Open Sans_MSFontService,sans-serif" font-weight="400" font-size="64" transform="matrix(1 0 0 1 3315.44 1155)">Enhanced capability </text><text fill="#F2F2F2" font-family="Open Sans,Open Sans_MSFontService,sans-serif" font-weight="400" font-size="64" transform="matrix(1 0 0 1 3435.82 1232)">to achieve a </text><text fill="#F2F2F2" font-family="Open Sans,Open Sans_MSFontService,sans-serif" font-weight="400" font-size="64" transform="matrix(1 0 0 1 3346.38 1309)">common purpose </text><path d="M577.5 2089.5C577.5 2039.24 618.242 1998.5 668.5 1998.5 718.758 1998.5 759.5 2039.24 759.5 2089.5 759.5 2139.76 718.758 2180.5 668.5 2180.5 618.242 2180.5 577.5 2139.76 577.5 2089.5Z" stroke="#F2666F" stroke-width="6.875" stroke-miterlimit="8" fill="#FFFFFF" fill-rule="evenodd"/><path d="M3230.5 1504.5C3230.5 1472.47 3256.47 1446.5 3288.5 1446.5L3951.5 1446.5C3983.53 1446.5 4009.5 1472.47 4009.5 1504.5L4009.5 1736.5C4009.5 1768.53 3983.53 1794.5 3951.5 1794.5L3288.5 1794.5C3256.47 1794.5 3230.5 1768.53 3230.5 1736.5Z" stroke="#2C8475" stroke-width="6.875" stroke-miterlimit="8" fill="#A4CAC3" fill-rule="evenodd"/><text font-family="Open Sans,Open Sans_MSFontService,sans-serif" font-weight="400" font-size="64" transform="matrix(1 0 0 1 3359.97 1603)">Shared resources </text><text font-family="Open Sans,Open Sans_MSFontService,sans-serif" font-weight="400" font-size="64" transform="matrix(1 0 0 1 3485.53 1680)">and risks </text><path d="M1563.5 1673.5C1563.5 1623.24 1604.02 1582.5 1654 1582.5 1703.98 1582.5 1744.5 1623.24 1744.5 1673.5 1744.5 1723.76 1703.98 1764.5 1654 1764.5 1604.02 1764.5 1563.5 1723.76 1563.5 1673.5Z" stroke="#F2666F" stroke-width="6.875" stroke-miterlimit="8" fill="#FFFFFF" fill-rule="evenodd"/><path d="M2548.5 1237.5C2548.5 1187.24 2589.24 1146.5 2639.5 1146.5 2689.76 1146.5 2730.5 1187.24 2730.5 1237.5 2730.5 1287.76 2689.76 1328.5 2639.5 1328.5 2589.24 1328.5 2548.5 1287.76 2548.5 1237.5Z" stroke="#F2666F" stroke-width="6.875" stroke-miterlimit="8" fill="#FFFFFF" fill-rule="evenodd"/><path d="M3529.5 854.5C3529.5 804.242 3570.24 763.5 3620.5 763.5 3670.76 763.5 3711.5 804.242 3711.5 854.5 3711.5 904.758 3670.76 945.5 3620.5 945.5 3570.24 945.5 3529.5 904.758 3529.5 854.5Z" stroke="#F2666F" stroke-width="6.875" stroke-miterlimit="8" fill="#FFFFFF" fill-rule="evenodd"/></g></svg>