<svg width="4526" height="2415" xmlns="http://www.w3.org/2000/svg" xmlns:xlink="http://www.w3.org/1999/xlink" xml:space="preserve" overflow="hidden"><g transform="translate(46 31)"><path d="M10.3108-0.187243 12.7179 132.362-7.90371 132.737-10.3108 0.187243ZM33.1522 121.677 3.34331 184.103-28.7126 122.8Z" fill="#2C8475" transform="matrix(-1 0 0 1 2201.84 1483.5)"/><path d="M0 0 2384 0 1907.2 258 476.8 258Z" stroke="#2C8475" stroke-width="6.875" stroke-miterlimit="8" fill="#2C8475" fill-rule="evenodd" fill-opacity="0.0588235" transform="matrix(1 0 0 -1 1001.5 648.5)"/><path d="M2203.81 652.5 2203.81 785.426 2183.19 785.426 2183.19 652.5ZM2224.44 775.113 2193.5 836.988 2162.56 775.113Z" fill="#2C8475"/><path d="M1493 372 2190.3-12 2895 372Z" fill="#2C8475" fill-rule="evenodd"/><text fill="#FFFFFF" font-family="Arial,Arial_MSFontService,sans-serif" font-weight="700" font-size="76" transform="matrix(1 0 0 1 1877.69 303)">Ethics principles</text><rect x="619.5" y="1238.5" width="3162" height="248" stroke="#2C8475" stroke-width="6.875" stroke-miterlimit="8" fill="#156082" fill-opacity="0.0588235"/><text font-family="Arial,Arial_MSFontService,sans-serif" font-weight="400" font-size="64" transform="matrix(1 0 0 1 1200.83 1385)">Provide the basis for codes of conduct in the Queensland public sector</text><path d="M615 1223 1138.7 931 3261.3 931 3785 1223Z" fill="#2C8475" fill-rule="evenodd"/><text fill="#FFFFFF" font-family="Arial,Arial_MSFontService,sans-serif" font-weight="700" font-size="73" transform="matrix(1 0 0 1 1956.74 1158)">Ethics values</text><rect x="271.5" y="2081.5" width="3892" height="299" stroke="#2C8475" stroke-width="6.875" stroke-miterlimit="8" fill="#2C8475" fill-opacity="0.0588235"/><text font-family="Arial,Arial_MSFontService,sans-serif" font-weight="400" font-size="64" transform="matrix(1 0 0 1 966.777 2254)">Provide a code of professional behaviors consistent with the ethics principles and values</text><path d="M271.5 2060.5 661.275 1768.5 3773.73 1768.5 4163.5 2060.5Z" stroke="#2C8475" stroke-width="1.14583" stroke-miterlimit="8" fill="#2C8475" fill-rule="evenodd"/><text fill="#FFFFFF" font-family="Arial,Arial_MSFontService,sans-serif" font-weight="700" font-size="73" transform="matrix(1 0 0 1 1826.44 1995)">Standards of conduct</text><path d="M2104.5 931C2104.5 881.018 2145.24 840.5 2195.5 840.5 2245.76 840.5 2286.5 881.018 2286.5 931 2286.5 980.982 2245.76 1021.5 2195.5 1021.5 2145.24 1021.5 2104.5 980.982 2104.5 931Z" stroke="#007A6D" stroke-width="6.875" stroke-miterlimit="8" fill="#F3F8F7" fill-rule="evenodd"/><text fill="#007A6D" font-family="Aptos,Aptos_MSFontService,sans-serif" font-weight="400" font-size="83" transform="matrix(1 0 0 1 2173.12 957)">2</text><path d="M2107.5 1768.5C2107.5 1718.24 2151.15 1677.5 2205 1677.5 2258.85 1677.5 2302.5 1718.24 2302.5 1768.5 2302.5 1818.76 2258.85 1859.5 2205 1859.5 2151.15 1859.5 2107.5 1818.76 2107.5 1768.5Z" stroke="#007A6D" stroke-width="6.875" stroke-miterlimit="8" fill="#F3F8F7" fill-rule="evenodd"/><text fill="#007A6D" font-family="Aptos,Aptos_MSFontService,sans-serif" font-weight="400" font-size="83" transform="matrix(1 0 0 1 2182.3 1794)">3</text><path d="M2104.5 63.4999C2104.5 13.242 2145.24-27.5 2195.5-27.5 2245.76-27.5 2286.5 13.242 2286.5 63.4999 2286.5 113.758 2245.76 154.5 2195.5 154.5 2145.24 154.5 2104.5 113.758 2104.5 63.4999Z" stroke="#007A6D" stroke-width="6.875" stroke-miterlimit="8" fill="#F3F8F7" fill-rule="evenodd"/><text fill="#007A6D" font-family="Aptos,Aptos_MSFontService,sans-serif" font-weight="400" font-size="83" transform="matrix(1 0 0 1 2173.12 89)">1</text><text font-family="Arial,Arial_MSFontService,sans-serif" font-weight="400" font-size="64" transform="matrix(1 0 0 1 1700.54 500)">Provide fundamental guidelines for </text><text fill="#282828" font-family="Arial,Arial_MSFontService,sans-serif" font-weight="400" font-size="64" transform="matrix(1 0 0 1 1821.42 577)">good public administration</text></g></svg>