<?xml version="1.0" encoding="UTF-8"?><svg id="Layer_1" data-name="Layer 1" xmlns="http://www.w3.org/2000/svg" viewBox="0 0 126.75 143.5"><defs><style>.cls-1 {
        fill: #05325f;
        stroke-width: 0px;
      }</style></defs><path class="cls-1" d="M57.71,39.22c14.38,0,26.03,11.65,26.03,26.03s-11.65,26.03-26.03,26.03-26.03-11.65-26.03-26.03,11.65-26.03,26.03-26.03ZM57.71,93.45c7.4,0,14.13-2.85,19.16-7.51l20.2,20.2c.42.42,1.11.42,1.53,0s.42-1.11,0-1.53l-20.2-20.2c4.66-5.03,7.51-11.75,7.51-19.16,0-15.58-12.62-28.2-28.2-28.2s-28.2,12.62-28.2,28.2,12.62,28.2,28.2,28.2ZM55.54,51.15c0-.6-.49-1.08-1.08-1.08s-1.08.49-1.08,1.08v28.2c0,.6.49,1.08,1.08,1.08s1.08-.49,1.08-1.08v-28.2ZM46.86,55.49c0-.6-.49-1.08-1.08-1.08s-1.08.49-1.08,1.08v19.52c0,.6.49,1.08,1.08,1.08s1.08-.49,1.08-1.08v-19.52ZM64.22,55.49c0-.6-.49-1.08-1.08-1.08s-1.08.49-1.08,1.08v19.52c0,.6.49,1.08,1.08,1.08s1.08-.49,1.08-1.08v-19.52ZM72.89,59.82c0-.6-.49-1.08-1.08-1.08s-1.08.49-1.08,1.08v10.85c0,.6.49,1.08,1.08,1.08s1.08-.49,1.08-1.08v-10.85Z"/></svg>