<?xml version="1.0" encoding="UTF-8"?><svg id="Layer_1" data-name="Layer 1" xmlns="http://www.w3.org/2000/svg" version="1.1" viewBox="0 0 110 135"><defs><style>.cls-1 {
        fill: #6bbe27;
      }

      .cls-1, .cls-2 {
        stroke-width: 0px;
      }

      .cls-3 {
        fill: none;
        stroke: #000;
        stroke-miterlimit: 10;
      }

      .cls-2 {
        fill: #000;
        fill-rule: evenodd;
      }</style></defs><path class="cls-2" d="M35.1,50.1v5.5c0,.6.2,1.1.6,1.4s.9.6,1.4.6h2v-14.3h-11.7v2.4c0,.8.4,1.7,1.1,2.4.6.6,1.4,1.1,2.2,1.1h3.4c.5,0,1,.4,1,1h0ZM34.9,72.3v5.5c0,.6.2,1.1.6,1.4.4.4.9.6,1.4.6h2v-14.3h-11.7v2.4c0,.8.4,1.7,1.1,2.4.6.6,1.4,1.1,2.2,1.1h3.4c.5,0,1,.4,1,1h0ZM33,77.7v-4.5h-2.5c-1.3,0-2.6-.7-3.5-1.7-.9-1-1.6-2.3-1.6-3.7v-3.3c0-.5.4-1,1-1h12.9v-4.1h-2.2c-1.1,0-2.1-.4-2.8-1.2-.7-.7-1.2-1.7-1.2-2.8v-4.5h-2.5c-1.3,0-2.6-.7-3.5-1.7-.9-1-1.6-2.3-1.6-3.7v-3.3c0-.5.4-1,1-1h12.8v-4.1h-2c-1.1,0-2.1-.4-2.8-1.2-.7-.7-1.2-1.7-1.2-2.8v-4.5h-2.5c-1.3,0-2.6-.7-3.5-1.7-1-1-1.6-2.3-1.6-3.7v-3.3c0-.5.4-1,1-1h12.6v-2.5c0-1,.4-1.9,1.1-2.6.7-.7,1.6-1.1,2.6-1.1h24.1c1,0,1.9.4,2.6,1.1.7.7,1.1,1.6,1.1,2.6v2.5h12.6c.5,0,1,.4,1,1v3.3c0,1.3-.6,2.7-1.6,3.7-.9,1-2.2,1.7-3.5,1.7h-2.5v4.5c0,1.1-.4,2.1-1.2,2.8s-1.7,1.2-2.8,1.2h-2v4.1h12.8c.5,0,1,.4,1,1v3.3c0,1.3-.6,2.7-1.6,3.7-.9,1-2.2,1.7-3.5,1.7h-2.5v4.5c0,1.1-.4,2.1-1.2,2.8-.7.7-1.7,1.2-2.8,1.2h-2.2v4.1h13c.5,0,1,.4,1,.9v3.3c0,1.3-.6,2.7-1.6,3.7-.9,1-2.2,1.7-3.5,1.7h-2.5v4.5c0,1.1-.4,2.1-1.2,2.8s-1.7,1.2-2.8,1.2h-2.4v1.2c0,1.3-.5,2.4-1.4,3.3-.8.8-2,1.4-3.3,1.4h-6.6v18.3c0,.5-.4,1-1,1h-7c-.5,0-1-.4-1-1v-18.3h-6.6c-1.3,0-2.4-.5-3.3-1.4-.8-.8-1.4-2-1.4-3.3v-1.2h-2.4c-1.1,0-2.1-.4-2.8-1.2s-1.2-1.7-1.2-2.8h0ZM39.3,35.5v-14.3h-11.7v2.4c0,.8.4,1.7,1.1,2.4.6.6,1.4,1.1,2.2,1.1h3.4c.5,0,1,.4,1,1v5.5c0,.6.2,1.1.6,1.4.4.4.9.6,1.4.6h2ZM41.2,20.1c0,0,0,.1,0,.2v16.2c0,0,0,.1,0,.2v46.3c0,.8.3,1.4.8,1.9.5.5,1.2.8,1.9.8h22.1c.8,0,1.4-.3,1.9-.8.5-.5.8-1.2.8-1.9V16.8c0-.5-.2-.9-.5-1.2s-.7-.5-1.2-.5h-24.1c-.5,0-.9.2-1.2.5s-.5.7-.5,1.2v3.3ZM75.1,77.7v-5.5c0-.5.4-1,1-1h3.4c.8,0,1.6-.4,2.2-1.1.6-.7,1.1-1.5,1.1-2.4v-2.4h-11.7s0,14.3,0,14.3h2c.6,0,1.1-.2,1.4-.6.4-.4.6-.9.6-1.4h0ZM74.9,55.6v-5.5c0-.5.4-1,1-1h3.4c.8,0,1.6-.4,2.2-1.1.6-.7,1.1-1.5,1.1-2.4v-2.4h-11.7v14.3h2c.6,0,1.1-.2,1.4-.6.4-.4.6-.9.6-1.4h0ZM74.8,33.4v-5.5c0-.5.4-1,1-1h3.4c.8,0,1.6-.4,2.2-1.1.6-.7,1.1-1.5,1.1-2.4v-2.4h-11.7s0,14.3,0,14.3h2c.6,0,1.1-.2,1.4-.6s.6-.9.6-1.4h0ZM57.6,87.6h-5.1v17.4h5.1v-17.4ZM55,79.5c1.9,0,3.7-.8,4.9-2,1.3-1.3,2-3,2-4.9s-.8-3.7-2-4.9c-1.3-1.3-3-2-4.9-2s-3.7.8-4.9,2c-1.3,1.3-2,3-2,4.9s.8,3.7,2,4.9c1.3,1.3,3,2,4.9,2ZM61.3,78.8c1.6-1.6,2.6-3.8,2.6-6.3s-1-4.7-2.6-6.3c-1.6-1.6-3.8-2.6-6.3-2.6s-4.7,1-6.3,2.6c-1.6,1.6-2.6,3.8-2.6,6.3s1,4.7,2.6,6.3c1.6,1.6,3.8,2.6,6.3,2.6s4.7-1,6.3-2.6ZM55,57.3c1.9,0,3.7-.8,4.9-2,1.3-1.3,2-3,2-4.9s-.8-3.7-2-4.9c-1.3-1.3-3-2-4.9-2s-3.7.8-4.9,2c-1.3,1.3-2,3-2,4.9s.8,3.7,2,4.9c1.3,1.3,3,2,4.9,2ZM61.3,56.6c1.6-1.6,2.6-3.8,2.6-6.3s-1-4.7-2.6-6.3-3.8-2.6-6.3-2.6-4.7,1-6.3,2.6-2.6,3.8-2.6,6.3,1,4.7,2.6,6.3,3.8,2.6,6.3,2.6c2.5,0,4.7-1,6.3-2.6ZM55,35.2c1.9,0,3.7-.8,4.9-2,1.3-1.3,2-3,2-4.9s-.8-3.7-2-4.9c-1.3-1.3-3-2-4.9-2s-3.7.8-4.9,2c-1.3,1.3-2,3-2,4.9s.8,3.7,2,4.9c1.3,1.3,3,2,4.9,2ZM61.3,34.5c1.6-1.6,2.6-3.8,2.6-6.3s-1-4.7-2.6-6.3-3.8-2.6-6.3-2.6-4.7,1-6.3,2.6-2.6,3.8-2.6,6.3,1,4.7,2.6,6.3,3.8,2.6,6.3,2.6c2.5,0,4.7-1,6.3-2.6Z"/><circle class="cls-1" cx="55" cy="72.5" r="7.1"/><line class="cls-3" x1="44.4" y1="63.6" x2="46.8" y2="65.5"/><line class="cls-3" x1="65.8" y1="63.6" x2="63.4" y2="65.5"/><line class="cls-3" x1="46.8" y1="80.9" x2="44.4" y2="82.8"/><line class="cls-3" x1="63.4" y1="80.9" x2="65.8" y2="82.8"/><line class="cls-3" x1="45.1" y1="72.9" x2="43.2" y2="72.9"/><line class="cls-3" x1="66.4" y1="72.9" x2="64.6" y2="72.9"/></svg>