<?xml version="1.0" encoding="UTF-8"?><svg id="Layer_1" data-name="Layer 1" xmlns="http://www.w3.org/2000/svg" version="1.1" viewBox="0 0 126.8 108.1"><defs><style>.cls-1 {
        fill: #05325f;
      }

      .cls-1, .cls-2 {
        stroke-width: 0px;
      }

      .cls-2 {
        fill: #0085b3;
      }</style></defs><path class="cls-1" d="M40.7,53.7c-3,0-5.9,0-8.7,0-4.2,0-7.9-1.2-11.2-3.7-10.6-8.2-8.6-24.5,3.6-30.1,2.1-1,4.4-1.5,6.7-1.5,6,0,12,0,18,0,.8,0,.9-.2.9-.9,0-3.8,0-7.5,0-11.3,0-1,.2-1.3,1.2-1.3,8.7,0,17.4,0,26.1,0,1,0,1.2.3,1.2,1.2,0,8.7,0,17.4,0,26,0,.9-.3,1.2-1.2,1.2-8.7,0-17.4,0-26.1,0-1,0-1.2-.2-1.2-1.3,0-3.8,0-7.7,0-11.5,0-.4,0-.6-.6-.6-6.1,0-12.3,0-18.4,0-7.8.1-14.7,6.5-15.4,14.3-.9,8.9,5.5,16.8,14.4,17.6,3.5.3,7,0,10.5,0,0-.3-.3-.4-.5-.6-2.5-2.5-5.1-5-7.6-7.5-.2-.2-.3-.3-.5-.5-.3-.4-.3-.8,0-1.1.3-.3.7-.4,1.1-.1.1,0,.2.2.3.3,3.3,3.3,6.6,6.5,9.8,9.8.4.4.1.8,0,1.1-.1.2-.3.4-.5.5-3.1,3.1-6.2,6.2-9.3,9.3-.4.4-.8.7-1.3.2-.5-.5-.3-1,.2-1.4,2.6-2.5,5.2-5.1,7.7-7.6.2-.2.4-.4.7-.7ZM64,31.6c4,0,8,0,11.9,0,.6,0,.7-.1.7-.7,0-7.9,0-15.8,0-23.6,0-.6-.2-.7-.7-.7-7.9,0-15.9,0-23.8,0-.6,0-.7.2-.7.7,0,7.9,0,15.8,0,23.6,0,.6.2.7.7.7,4,0,7.9,0,11.9,0Z"/><path class="cls-1" d="M85.4,85.8c0,.1,0,.2,0,.2,3.8,0,7.6.4,11.3-.3,7.5-1.5,12.9-8.3,12.8-15.9,0-7.5-5.7-14-13.1-15.5-1.1-.2-2.2-.3-3.4-.3-3.8,0-7.6,0-11.3,0-.5,0-.8.1-1.1.6-2.4,4.3-4.9,8.5-7.4,12.8-.4.7-.8.9-1.6.9-5.2,0-10.4,0-15.6,0-.8,0-1.2-.2-1.6-.9-2.6-4.5-5.2-8.9-7.8-13.4-.4-.7-.4-1.2,0-1.9,2.6-4.5,5.2-9,7.8-13.5.4-.6.8-.9,1.5-.9,5.3,0,10.5,0,15.8,0,.7,0,1.2.3,1.5.9,2.5,4.3,5,8.6,7.5,13,.3.4.5.6,1,.6,3.8,0,7.6,0,11.4,0,7.6.2,13.1,3.7,16.4,10.4,1,2.1,1.6,4.3,1.5,6.6-.2,7.3-3.3,12.9-9.9,16.4-2.6,1.4-5.5,1.9-8.4,1.9-2.3,0-4.6,0-6.9,0-.2,0-.5,0-.9.2.3.2.5.3.6.5,2.5,2.5,5.1,5,7.6,7.5.2.2.4.3.5.5.3.4.2.8-.1,1.1-.3.3-.7.2-1,0-.2-.1-.3-.3-.4-.4-3.2-3.2-6.3-6.3-9.5-9.5-.5-.5-.4-.8,0-1.3,3.3-3.3,6.5-6.5,9.8-9.8.4-.4.9-.6,1.3-.1.5.5.3.9-.1,1.4-2.6,2.6-5.2,5.1-7.8,7.7-.2.2-.4.3-.6.5ZM64,39.3c-2.4,0-4.9,0-7.3,0-.4,0-.6,0-.8.4-2.4,4.3-4.9,8.5-7.4,12.8-.2.3-.2.5,0,.9,2.5,4.2,4.9,8.5,7.4,12.7.2.3.4.5.8.5,4.9,0,9.8,0,14.6,0,.4,0,.6-.1.8-.5,2.4-4.2,4.9-8.5,7.4-12.7.2-.4.2-.6,0-.9-2.5-4.2-4.9-8.4-7.3-12.6-.2-.4-.4-.5-.9-.5-2.4,0-4.9,0-7.3,0Z"/><path class="cls-1" d="M80.3,87.4c0,8.9-7.4,16.2-16.4,16.2-9,0-16.4-7.4-16.3-16.3,0-8.9,7.4-16.2,16.4-16.2,9,0,16.4,7.3,16.4,16.2ZM78.7,87.6c0-8-6.7-14.7-14.7-14.6-8.1,0-14.6,6.5-14.7,14.5,0,8.1,6.6,14.7,14.7,14.7,8.1,0,14.7-6.5,14.7-14.6Z"/><path class="cls-1" d="M64,31.6c-4,0-7.9,0-11.9,0-.6,0-.7-.1-.7-.7,0-7.9,0-15.8,0-23.6,0-.5.1-.7.7-.7,7.9,0,15.9,0,23.8,0,.5,0,.7.1.7.7,0,7.9,0,15.8,0,23.6,0,.6-.1.7-.7.7-4,0-8,0-11.9,0Z"/><path class="cls-2" d="M64,39.3c2.4,0,4.9,0,7.3,0,.4,0,.7.1.9.5,2.4,4.2,4.9,8.4,7.3,12.6.2.3.2.6,0,.9-2.5,4.2-4.9,8.5-7.4,12.7-.2.4-.4.5-.8.5-4.9,0-9.8,0-14.6,0-.4,0-.6-.1-.8-.5-2.4-4.2-4.9-8.5-7.4-12.7-.2-.3-.2-.5,0-.9,2.5-4.2,5-8.5,7.4-12.8.2-.4.5-.4.8-.4,2.4,0,4.9,0,7.3,0Z"/><path class="cls-2" d="M78.7,87.6c0,8-6.7,14.6-14.7,14.6-8.1,0-14.7-6.6-14.7-14.7,0-8,6.6-14.5,14.7-14.5,8.1,0,14.8,6.6,14.7,14.6Z"/></svg>