<?xml version="1.0" encoding="UTF-8"?><svg id="Layer_1" data-name="Layer 1" xmlns="http://www.w3.org/2000/svg" version="1.1" viewBox="0 0 126.8 108.1"><defs><style>.cls-1 {
        fill: #05325f;
        stroke-width: 0px;
      }</style></defs><path class="cls-1" d="M14.8,41.8c0-15.1,14.6-28,33.6-28s33.6,13,33.6,28-14.6,28-33.6,28-12.2-1.5-17.7-4.2c-.4-.2-.9-.2-1.3,0-4.6,2.4-9.6,4.2-14.6,4.2h0c3.3-2.5,5.6-6,7-9.7.2-.5,0-1-.2-1.4-4.2-4.8-6.8-10.6-6.8-16.9Z"/><path class="cls-1" d="M48.4,11c-20.1,0-36.4,13.8-36.4,30.8s2.7,13,6.9,18.1c-1.3,3-3.2,5.7-5.8,7.7-1,.7-1.4,2-1,3.1.4,1.2,1.5,1.9,2.7,1.9,5.4,0,10.6-1.8,15.3-4.2,5.7,2.7,11.9,4.2,18.3,4.2,20.1,0,36.4-13.8,36.4-30.8s-16.3-30.8-36.4-30.8Z"/><path class="cls-1" d="M83,35.4c17.6,1.2,30.8,13.6,30.8,27.9s-2.6,12.1-6.8,16.9c-.3.4-.4.9-.2,1.4,1.4,3.8,3.7,7.2,7,9.7h0c-5,0-10-1.8-14.6-4.2-.4-.2-.9-.2-1.3,0-5.6,2.7-11.5,4.2-17.7,4.2-15.6,0-28.2-8.7-32.3-20.1-.9.1-1.9.2-2.9.3,4.3,13,18.3,22.6,35.1,22.6s12.6-1.5,18.3-4.2c4.6,2.4,9.9,4.2,15.3,4.2s2.3-.8,2.7-1.9c.4-1.2,0-2.4-1-3.1-2.6-2-4.5-4.7-5.8-7.7,4.2-5.1,6.9-11.2,6.9-18.1,0-16.2-14.9-29.6-33.7-30.7,0,.9.1,1.8.1,2.7h0Z"/></svg>