<?xml version="1.0" encoding="UTF-8"?><svg id="Layer_1" data-name="Layer 1" xmlns="http://www.w3.org/2000/svg" version="1.1" viewBox="0 0 126.8 143.5"><defs><style>.cls-1 {
        fill: #0085b3;
      }

      .cls-1, .cls-2, .cls-3 {
        stroke-width: 0px;
      }

      .cls-2 {
        fill: #05325f;
      }

      .cls-3 {
        fill: #fff;
      }</style></defs><g><path class="cls-2" d="M8.7,20.5c0-.5.4-.8.8-.9,15,0,50.7-.3,58.3.2,1.2.8.4,2.6-1.4,3.2-2,1-5.7-.4-5.4,2.9,0,8.3,0,26,0,33.1.3,1.8-2.3,5.7-3.8,3.4-.4-.7-.8-1.3-1.8-1.3-5.6,0-24.1,0-32.9,0-2,0-2.6,0-2.7.9,0,.9,0,2.9,0,5.7,0,9.5,0,27.4,0,32.7-.6,10.8,7.6,20.8,18.9,20.8,2.4,0,4.8,0,7-.7,1.7-.4,2.8-1.8,4.4-1.6.2,0,.2,0,.3.1.1,0,.3.2.4.3,1,2.8-4.3,4.2-6.5,4.9-13.3,3.7-27.1-6.6-28-20.1-.5-21.5,0-69.3-.2-79.9,0-.4-.5-.6-.9-.7-.9-.2-2.7,0-4.1-.5-1.2-.3-2.4-1.6-2.2-2.4h0Z"/><rect class="cls-3" x="19.8" y="23.5" width="37.3" height="33.8"/></g><g><path class="cls-1" d="M105.2,68.5c-5.2,5.2-1.5,14,5.8,14h6.1v12.3h-6.1c-7.3,0-11,8.9-5.8,14l4.4,4.4-8.6,8.6-4.4-4.4c-5.1-5.2-13.9-1.5-14,5.8v6.2h-12.2v-6.1h0c0-7.4-8.8-11.1-14-5.9l-4.4,4.4-8.6-8.6,4.4-4.4c5.2-5.2,1.5-14-5.8-14h-6.1v-12.3h6.1c7.3,0,11-8.9,5.8-14l-4.4-4.4,8.6-8.6,4.4,4.4c5.2,5.2,14,1.5,14-5.9v-6.1h12.2v6.2c0,7.3,8.8,11,14,5.8l4.4-4.4,8.6,8.6-4.4,4.4h0Z"/><path class="cls-3" d="M111,86.7c-10.9,0-16.4-13.3-8.7-21l1.4-1.4-2.8-2.8-1.4,1.4c-7.7,7.7-20.9,2.3-20.9-8.6h0v-2.1h-4v2.1c0,11-13.2,16.5-20.9,8.7l-1.4-1.4-2.8,2.8,1.4,1.4c7.7,7.7,2.3,21-8.7,21h-2.1v4.1h2.1c11,0,16.4,13.3,8.7,21l-1.4,1.4,2.8,2.8,1.4-1.4c7.7-7.7,20.9-2.3,20.9,8.7v2.1h4v-2.1c0-1.6.3-3.3.9-4.7,1.3-3.3,4-5.8,7.2-6.9,4.1-1.5,9.1-.9,12.8,2.8l1.4,1.4,2.8-2.8-1.4-1.4c-3.4-3.5-4.2-7.9-3.2-12,1.2-4.2,4.6-7.9,9.4-8.9.8-.1,1.6-.2,2.5-.2h2.1v-4.1h-2.1Z"/><path class="cls-1" d="M68.4,84.6c2.3,0,4-1.8,4-4.1s-1.8-4.1-4-4.1-4,1.8-4,4.1,1.8,4.1,4,4.1Z"/><path class="cls-1" d="M68.4,72.3c4.5,0,8.2,3.7,8.2,8.2s-3.6,8.2-8.2,8.2-8.2-3.7-8.2-8.2,3.6-8.2,8.2-8.2Z"/><path class="cls-1" d="M88.7,96.8c0-2.3-1.8-4.1-4-4.1s-4,1.8-4,4.1,1.8,4.1,4,4.1,4-1.8,4-4.1Z"/><path class="cls-1" d="M76.5,96.8c0-4.5,3.6-8.2,8.2-8.2s8.2,3.7,8.2,8.2-3.6,8.2-8.2,8.2-8.2-3.7-8.2-8.2Z"/></g></svg>